# Blender v3.0.0 OBJ File: 'stone2.blend'
# www.blender.org
mtllib stone2_Collusion.mtl
o stone_big
v 0.060801 -0.588313 -0.020906
v 0.574984 -0.457460 0.349897
v -0.245372 -0.548489 0.799193
v -0.618931 -0.468860 0.000000
v -0.138132 -0.223655 -0.425409
v 0.452663 -0.278295 -0.356935
v 0.174484 0.205217 0.519247
v -0.526480 0.176972 0.390931
v -0.823277 0.207663 -0.077956
v -0.143551 0.434081 -0.487263
v 0.097121 0.209054 0.089409
v -0.639735 0.645441 0.187717
v -0.086261 -0.586635 0.388622
v 0.366982 -0.699314 0.260995
v 0.173585 -0.576196 0.778255
v 0.563358 -0.362414 -0.094236
v 0.323010 -0.498087 -0.293260
v -0.267104 -0.453503 0.000000
v -0.469294 -0.618279 0.525002
v -0.053654 -0.443615 -0.289885
v -0.344179 -0.262981 -0.249896
v 0.174148 -0.295781 -0.460644
v 0.477483 -0.033627 0.147688
v 0.497071 0.012589 -0.245378
v 0.050697 -0.059188 0.713109
v 0.401586 -0.118039 0.541665
v -0.913577 0.000000 0.585044
v -0.379427 -0.070785 0.549968
v -0.294119 0.000440 -0.404628
v -0.913577 0.000000 -0.585044
v 0.361026 0.002880 -0.551608
v -0.018454 0.119228 -0.618440
v 0.192976 0.205631 0.334295
v -0.227874 0.364839 0.471396
v -1.176364 0.246187 0.000000
v -0.291348 0.405082 -0.412891
v -0.180742 0.305325 -0.131097
v -0.216877 0.394928 0.445020
v -0.140746 0.444627 0.167280
v -0.248706 0.400083 0.425442
v -0.940359 0.548725 0.078942
v -0.311571 0.647925 -0.165466
vt 0.181819 0.000000
vt 0.227273 0.078731
vt 0.136364 0.078731
vt 0.272728 0.157461
vt 0.318183 0.078731
vt 0.363637 0.157461
vt 0.909091 0.000000
vt 0.954546 0.078731
vt 0.863636 0.078730
vt 0.727273 0.000000
vt 0.772727 0.078731
vt 0.681818 0.078731
vt 0.545455 0.000000
vt 0.590909 0.078731
vt 0.500000 0.078730
vt 0.318182 0.236191
vt 0.090910 0.157461
vt 0.181819 0.157461
vt 0.136365 0.236191
vt 0.818182 0.157461
vt 0.909091 0.157461
vt 0.863636 0.236191
vt 0.636364 0.157461
vt 0.727273 0.157461
vt 0.681818 0.236191
vt 0.454546 0.157461
vt 0.545455 0.157461
vt 0.500000 0.236191
vt 0.227273 0.236191
vt 0.045455 0.236191
vt 0.772727 0.236191
vt 0.589098 0.233181
vt 0.409091 0.236191
vt 0.181819 0.314921
vt 0.272728 0.314921
vt 0.153915 0.385770
vt 0.000000 0.314921
vt 0.090910 0.314921
vt 0.086387 0.322754
vt 0.727273 0.314921
vt 0.818182 0.314921
vt 0.772666 0.393339
vt 0.540039 0.299474
vt 0.635050 0.304868
vt 0.589946 0.393825
vt 0.363637 0.314921
vt 0.450815 0.307826
vt 0.409091 0.393651
vt 0.495369 0.390859
vt 0.454546 0.472382
vt 0.681837 0.393590
vt 0.636364 0.472382
vt 0.936996 0.385770
vt 0.818182 0.472382
vt 0.909091 0.314921
vt 0.095432 0.322754
vt 0.090910 0.472382
vt 0.318182 0.393651
vt 0.272728 0.472382
vt 0.954545 0.236191
vt 1.000000 0.157461
vt 0.409092 0.078731
vt 0.363637 0.000000
vn -0.2643 -0.9601 -0.0910
vn 0.7763 -0.6120 -0.1513
vn -0.3841 -0.9135 -0.1342
vn -0.3785 -0.8727 -0.3084
vn -0.1333 -0.8954 -0.4249
vn 0.9716 0.2354 0.0249
vn 0.0586 0.1385 0.9886
vn -0.8075 -0.5864 0.0633
vn -0.5746 -0.3306 -0.7487
vn 0.3351 -0.4601 -0.8222
vn 0.9124 0.3272 0.2459
vn -0.3395 0.3584 0.8696
vn -0.8467 -0.5321 0.0000
vn -0.5102 -0.2797 -0.8133
vn 0.9136 0.0164 -0.4064
vn 0.4289 0.9023 0.0449
vn -0.5207 0.5469 0.6555
vn -0.1624 0.3658 -0.9164
vn -0.4463 0.6202 -0.6451
vn 0.5711 0.7118 -0.4089
vn 0.3627 0.8664 0.3431
vn 0.9080 0.3196 -0.2709
vn 0.9020 0.3672 0.2269
vn -0.2307 0.9506 -0.2077
vn -0.3622 0.6503 -0.6678
vn -0.5701 0.1737 -0.8030
vn -0.3958 0.2305 0.8889
vn -0.4284 0.0999 0.8980
vn -0.4351 0.4183 0.7973
vn -0.5254 -0.0130 0.8508
vn -0.2957 0.6886 0.6621
vn 0.1539 0.6189 0.7702
vn 0.3696 0.8918 0.2609
vn 0.4636 0.8414 0.2776
vn 0.6419 0.7279 -0.2411
vn 0.3835 0.9199 -0.0817
vn 0.3621 0.9126 -0.1898
vn 0.6388 0.6998 0.3197
vn -0.4697 0.1740 -0.8655
vn -0.6096 -0.0120 -0.7926
vn -0.5291 -0.0137 -0.8484
vn 0.0166 0.9242 -0.3815
vn -0.6837 -0.7298 0.0000
vn -0.1761 0.8765 0.4480
vn -0.4198 0.3005 0.8564
vn -0.3469 0.2820 0.8945
vn 0.1199 0.5499 0.8266
vn 0.8128 0.5767 0.0826
vn 0.7181 0.6392 0.2753
vn 0.5486 0.8110 -0.2034
vn 0.2897 0.4639 -0.8372
vn 0.0654 -0.3280 -0.9424
vn -0.1982 -0.4274 -0.8821
vn 0.1141 0.9121 -0.3938
vn 0.2383 -0.5252 -0.8170
vn 0.0109 -0.7776 -0.6287
vn 0.1304 0.5893 0.7974
vn 0.0582 -0.0550 0.9968
vn -0.7830 0.1005 0.6139
vn 0.4569 0.3769 0.8057
vn 0.4577 0.2174 0.8621
vn 0.7313 -0.0117 0.6820
vn 0.5199 0.8450 0.1253
vn 0.9767 0.2018 0.0724
vn 0.9223 0.0073 -0.3863
vn 0.3375 -0.4401 -0.8321
vn -0.1046 -0.6786 -0.7271
vn -0.2212 -0.5717 -0.7901
vn -0.4570 -0.5872 -0.6681
vn -0.5217 -0.7484 -0.4097
vn 0.0345 -0.7896 -0.6126
vn 0.0418 -0.9578 -0.2845
vn -0.0321 -0.9500 -0.3105
vn 0.1317 -0.9810 0.1422
vn 0.6953 -0.5457 -0.4677
vn 0.6470 -0.6988 -0.3050
vn -0.0287 -0.9403 -0.3391
vn -0.0624 -0.9957 0.0683
vn -0.1964 -0.9679 0.1569
vn 0.6205 -0.6783 0.3935
usemtl stone_big
s off
f 1/1/1 14/2/1 13/3/1
f 2/4/2 14/5/2 16/6/2
f 1/7/3 13/8/3 18/9/3
f 1/10/4 18/11/4 20/12/4
f 1/13/5 20/14/5 17/15/5
f 2/4/6 16/6/6 23/16/6
f 3/17/7 15/18/7 25/19/7
f 4/20/8 19/21/8 27/22/8
f 5/23/9 21/24/9 29/25/9
f 6/26/10 22/27/10 31/28/10
f 2/4/11 23/16/11 26/29/11
f 3/17/12 25/19/12 28/30/12
f 4/20/13 27/22/13 30/31/13
f 5/23/14 29/25/14 32/32/14
f 6/26/15 31/28/15 24/33/15
f 7/34/16 33/35/16 38/36/16
f 8/37/17 34/38/17 40/39/17
f 9/40/18 35/41/18 41/42/18
f 10/43/19 36/44/19 42/45/19
f 11/46/20 37/47/20 39/48/20
f 39/48/21 42/49/21 12/50/21
f 39/48/22 37/47/22 42/49/22
f 37/47/23 10/43/23 42/49/23
f 42/45/24 41/51/24 12/52/24
f 42/45/25 36/44/25 41/51/25
f 36/44/26 9/40/26 41/51/26
f 41/42/27 40/53/27 12/54/27
f 41/42/28 35/41/28 40/53/28
f 35/41/29 8/55/29 40/53/29
f 40/39/30 38/56/30 12/57/30
f 40/39/31 34/38/31 38/56/31
f 34/38/32 7/34/32 38/56/32
f 38/36/33 39/58/33 12/59/33
f 38/36/34 33/35/34 39/58/34
f 33/35/35 11/46/35 39/58/35
f 24/33/36 37/47/36 11/46/36
f 24/33/37 31/28/37 37/47/37
f 31/28/38 10/43/38 37/47/38
f 32/32/39 36/44/39 10/43/39
f 32/32/40 29/25/40 36/44/40
f 29/25/41 9/40/41 36/44/41
f 30/31/42 35/41/42 9/40/42
f 30/31/43 27/22/43 35/41/43
f 27/22/44 8/55/44 35/41/44
f 28/30/45 34/38/45 8/37/45
f 28/30/46 25/19/46 34/38/46
f 25/19/47 7/34/47 34/38/47
f 26/29/48 33/35/48 7/34/48
f 26/29/49 23/16/49 33/35/49
f 23/16/50 11/46/50 33/35/50
f 31/28/51 32/32/51 10/43/51
f 31/28/52 22/27/52 32/32/52
f 22/27/53 5/23/53 32/32/53
f 29/25/54 30/31/54 9/40/54
f 29/25/55 21/24/55 30/31/55
f 21/24/56 4/20/56 30/31/56
f 27/22/57 28/60/57 8/55/57
f 27/22/58 19/21/58 28/60/58
f 19/21/59 3/61/59 28/60/59
f 25/19/60 26/29/60 7/34/60
f 25/19/61 15/18/61 26/29/61
f 15/18/62 2/4/62 26/29/62
f 23/16/63 24/33/63 11/46/63
f 23/16/64 16/6/64 24/33/64
f 16/6/65 6/26/65 24/33/65
f 17/15/66 22/27/66 6/26/66
f 17/15/67 20/14/67 22/27/67
f 20/14/68 5/23/68 22/27/68
f 20/12/69 21/24/69 5/23/69
f 20/12/70 18/11/70 21/24/70
f 18/11/71 4/20/71 21/24/71
f 18/9/72 19/21/72 4/20/72
f 18/9/73 13/8/73 19/21/73
f 13/8/74 3/61/74 19/21/74
f 16/6/75 17/62/75 6/26/75
f 16/6/76 14/5/76 17/62/76
f 14/5/77 1/63/77 17/62/77
f 13/3/78 15/18/78 3/17/78
f 13/3/79 14/2/79 15/18/79
f 14/2/80 2/4/80 15/18/80
o stone_big_Collusion
v 0.060801 -0.588313 -0.020906
v 0.574984 -0.457460 0.349897
v -0.245372 -0.548489 0.799193
v -0.618931 -0.468860 0.000000
v -0.138132 -0.223655 -0.425409
v 0.452663 -0.278295 -0.356935
v 0.174484 0.205217 0.519247
v -0.526480 0.176972 0.390931
v -0.823277 0.207663 -0.077956
v -0.143551 0.434081 -0.487263
v 0.097121 0.209054 0.089409
v -0.639735 0.645441 0.187717
v -0.086261 -0.586635 0.388622
v 0.366982 -0.699314 0.260995
v 0.173585 -0.576196 0.778255
v 0.563358 -0.362414 -0.094236
v 0.323010 -0.498087 -0.293260
v -0.267104 -0.453503 0.000000
v -0.469294 -0.618279 0.525002
v -0.053654 -0.443615 -0.289885
v -0.344179 -0.262981 -0.249896
v 0.174148 -0.295781 -0.460644
v 0.477483 -0.033627 0.147688
v 0.497071 0.012589 -0.245378
v 0.050697 -0.059188 0.713109
v 0.401586 -0.118039 0.541665
v -0.913577 0.000000 0.585044
v -0.379427 -0.070785 0.549968
v -0.294119 0.000440 -0.404628
v -0.913577 0.000000 -0.585044
v 0.361026 0.002880 -0.551608
v -0.018454 0.119228 -0.618440
v 0.192976 0.205631 0.334295
v -0.227874 0.364839 0.471396
v -1.176364 0.246187 0.000000
v -0.291348 0.405082 -0.412891
v -0.180742 0.305325 -0.131097
v -0.216877 0.394928 0.445020
v -0.140746 0.444627 0.167280
v -0.248706 0.400083 0.425442
v -0.940359 0.548725 0.078942
v -0.311571 0.647925 -0.165466
vn -0.2643 -0.9601 -0.0910
vn 0.7763 -0.6120 -0.1513
vn -0.3841 -0.9135 -0.1342
vn -0.3785 -0.8727 -0.3084
vn -0.1333 -0.8954 -0.4249
vn 0.9716 0.2354 0.0249
vn 0.0586 0.1385 0.9886
vn -0.8075 -0.5864 0.0633
vn -0.5746 -0.3306 -0.7487
vn 0.3351 -0.4601 -0.8222
vn 0.9124 0.3272 0.2459
vn -0.3395 0.3584 0.8696
vn -0.8467 -0.5321 0.0000
vn -0.5102 -0.2797 -0.8133
vn 0.9136 0.0164 -0.4064
vn 0.4289 0.9023 0.0449
vn -0.5207 0.5469 0.6555
vn -0.1624 0.3658 -0.9164
vn -0.4463 0.6202 -0.6451
vn 0.5711 0.7118 -0.4089
vn 0.3627 0.8664 0.3431
vn 0.9080 0.3196 -0.2709
vn 0.9020 0.3672 0.2269
vn -0.2307 0.9506 -0.2077
vn -0.3622 0.6503 -0.6678
vn -0.5701 0.1737 -0.8030
vn -0.3958 0.2305 0.8889
vn -0.4284 0.0999 0.8980
vn -0.4351 0.4183 0.7973
vn -0.5254 -0.0130 0.8508
vn -0.2957 0.6886 0.6621
vn 0.1539 0.6189 0.7702
vn 0.3696 0.8918 0.2609
vn 0.4636 0.8414 0.2776
vn 0.6419 0.7279 -0.2411
vn 0.3835 0.9199 -0.0817
vn 0.3621 0.9126 -0.1898
vn 0.6388 0.6998 0.3197
vn -0.4697 0.1740 -0.8655
vn -0.6096 -0.0120 -0.7926
vn -0.5291 -0.0137 -0.8484
vn 0.0166 0.9242 -0.3815
vn -0.6837 -0.7298 0.0000
vn -0.1761 0.8765 0.4480
vn -0.4198 0.3005 0.8564
vn -0.3469 0.2820 0.8945
vn 0.1199 0.5499 0.8266
vn 0.8128 0.5767 0.0826
vn 0.7181 0.6392 0.2753
vn 0.5486 0.8110 -0.2034
vn 0.2897 0.4639 -0.8372
vn 0.0654 -0.3280 -0.9424
vn -0.1982 -0.4274 -0.8821
vn 0.1141 0.9121 -0.3938
vn 0.2383 -0.5252 -0.8170
vn 0.0109 -0.7776 -0.6287
vn 0.1304 0.5893 0.7974
vn 0.0582 -0.0550 0.9968
vn -0.7830 0.1005 0.6139
vn 0.4569 0.3769 0.8057
vn 0.4577 0.2174 0.8621
vn 0.7313 -0.0117 0.6820
vn 0.5199 0.8450 0.1253
vn 0.9767 0.2018 0.0724
vn 0.9223 0.0073 -0.3863
vn 0.3375 -0.4401 -0.8321
vn -0.1046 -0.6786 -0.7271
vn -0.2212 -0.5717 -0.7901
vn -0.4570 -0.5872 -0.6681
vn -0.5217 -0.7484 -0.4097
vn 0.0345 -0.7896 -0.6126
vn 0.0418 -0.9578 -0.2845
vn -0.0321 -0.9500 -0.3105
vn 0.1317 -0.9810 0.1422
vn 0.6953 -0.5457 -0.4677
vn 0.6470 -0.6988 -0.3050
vn -0.0287 -0.9403 -0.3391
vn -0.0624 -0.9957 0.0683
vn -0.1964 -0.9679 0.1569
vn 0.6205 -0.6783 0.3935
usemtl None
s off
f 43//81 56//81 55//81
f 44//82 56//82 58//82
f 43//83 55//83 60//83
f 43//84 60//84 62//84
f 43//85 62//85 59//85
f 44//86 58//86 65//86
f 45//87 57//87 67//87
f 46//88 61//88 69//88
f 47//89 63//89 71//89
f 48//90 64//90 73//90
f 44//91 65//91 68//91
f 45//92 67//92 70//92
f 46//93 69//93 72//93
f 47//94 71//94 74//94
f 48//95 73//95 66//95
f 49//96 75//96 80//96
f 50//97 76//97 82//97
f 51//98 77//98 83//98
f 52//99 78//99 84//99
f 53//100 79//100 81//100
f 81//101 84//101 54//101
f 81//102 79//102 84//102
f 79//103 52//103 84//103
f 84//104 83//104 54//104
f 84//105 78//105 83//105
f 78//106 51//106 83//106
f 83//107 82//107 54//107
f 83//108 77//108 82//108
f 77//109 50//109 82//109
f 82//110 80//110 54//110
f 82//111 76//111 80//111
f 76//112 49//112 80//112
f 80//113 81//113 54//113
f 80//114 75//114 81//114
f 75//115 53//115 81//115
f 66//116 79//116 53//116
f 66//117 73//117 79//117
f 73//118 52//118 79//118
f 74//119 78//119 52//119
f 74//120 71//120 78//120
f 71//121 51//121 78//121
f 72//122 77//122 51//122
f 72//123 69//123 77//123
f 69//124 50//124 77//124
f 70//125 76//125 50//125
f 70//126 67//126 76//126
f 67//127 49//127 76//127
f 68//128 75//128 49//128
f 68//129 65//129 75//129
f 65//130 53//130 75//130
f 73//131 74//131 52//131
f 73//132 64//132 74//132
f 64//133 47//133 74//133
f 71//134 72//134 51//134
f 71//135 63//135 72//135
f 63//136 46//136 72//136
f 69//137 70//137 50//137
f 69//138 61//138 70//138
f 61//139 45//139 70//139
f 67//140 68//140 49//140
f 67//141 57//141 68//141
f 57//142 44//142 68//142
f 65//143 66//143 53//143
f 65//144 58//144 66//144
f 58//145 48//145 66//145
f 59//146 64//146 48//146
f 59//147 62//147 64//147
f 62//148 47//148 64//148
f 62//149 63//149 47//149
f 62//150 60//150 63//150
f 60//151 46//151 63//151
f 60//152 61//152 46//152
f 60//153 55//153 61//153
f 55//154 45//154 61//154
f 58//155 59//155 48//155
f 58//156 56//156 59//156
f 56//157 43//157 59//157
f 55//158 57//158 45//158
f 55//159 56//159 57//159
f 56//160 44//160 57//160
