# Blender v3.0.0 OBJ File: 'trunk.blend'
# www.blender.org
mtllib trunk.mtl
o trunk
v -0.168638 0.790575 -0.107620
v -0.178780 0.859414 -0.176837
v -0.112532 0.757156 -0.041658
v -0.045253 0.821588 -0.155881
v -0.024244 0.761437 0.060277
v 0.046182 0.824513 -0.007129
v -0.046979 0.757156 0.189898
v 0.001443 0.821611 0.190020
v -0.103785 0.759289 0.289735
v 0.018713 0.780399 0.310676
v -0.221975 0.761047 0.326178
v -0.149645 0.759068 0.468504
v -0.339935 0.761437 0.291424
v -0.330211 0.770272 0.385587
v -0.451281 0.746362 0.206632
v -0.500556 0.778690 0.238608
v -0.471951 0.765533 0.122057
v -0.498744 0.821909 0.143676
v -0.432624 0.784131 0.011360
v -0.348176 0.880350 -0.035678
v -0.240193 0.689669 -0.014281
v -0.156150 0.689669 0.013026
v -0.104209 0.689669 0.084517
v -0.104209 0.689669 0.172885
v -0.156150 0.689669 0.244376
v -0.240193 0.689669 0.271684
v -0.324236 0.689669 0.244376
v -0.376177 0.689669 0.172885
v -0.376177 0.689669 0.084517
v -0.324236 0.689669 0.013026
v -0.021449 0.699262 0.230274
v -0.051265 0.699262 0.281977
v -0.004181 0.653774 0.271232
v -0.062376 0.668905 0.253670
v 0.008228 0.626024 0.271916
v -0.004555 0.626024 0.294082
v -0.008318 0.611174 0.269555
v -0.019065 0.611174 0.284347
v -0.240193 0.723065 -0.014281
v -0.156150 0.723065 0.013026
v -0.115980 0.691884 0.074131
v -0.117254 0.692964 0.163418
v -0.168699 0.684990 0.231087
v -0.252305 0.681459 0.256629
v -0.335848 0.675402 0.226377
v -0.390161 0.725977 0.144830
v -0.376177 0.723065 0.084517
v -0.324236 0.723065 0.013026
vt 1.000000 0.500000
vt 1.000000 1.000000
vt 0.900000 1.000000
vt 0.900000 0.500000
vt 0.800000 1.000000
vt 0.800000 0.500000
vt 0.700000 1.000000
vt 0.700000 0.500000
vt 0.600000 1.000000
vt 0.600000 0.500000
vt 0.500000 1.000000
vt 0.500000 0.500000
vt 0.400000 1.000000
vt 0.400000 0.500000
vt 0.300000 1.000000
vt 0.300000 0.500000
vt 0.200000 1.000000
vt 0.200000 0.500000
vt 0.391068 0.444164
vt 0.250000 0.490000
vt 0.108932 0.444164
vt 0.021746 0.324164
vt 0.021746 0.175836
vt 0.108932 0.055836
vt 0.250000 0.010000
vt 0.391068 0.055836
vt 0.478254 0.175836
vt 0.478254 0.324164
vt 0.100000 1.000000
vt 0.100000 0.500000
vt -0.000000 1.000000
vt -0.000000 0.500000
vt 0.700000 0.500000
vt 0.700000 0.500000
vt 0.700000 0.500000
vt 0.100000 0.500000
vt -0.000000 0.500000
vt -0.000000 0.500000
vt 0.100000 0.500000
vt 0.900000 0.500000
vt 1.000000 0.500000
vt 0.800000 0.500000
vt 0.200000 0.500000
vt 0.300000 0.500000
vt 0.400000 0.500000
vt 0.500000 0.500000
vt 0.600000 0.500000
vt 0.600000 0.500000
vt 0.600000 0.500000
vt 0.600000 0.500000
vt 0.600000 0.500000
vt 0.891068 0.055836
vt 0.978254 0.175836
vt 0.978254 0.175836
vt 0.891068 0.055836
vt 0.700000 0.500000
vt 0.700000 0.500000
vt 0.978254 0.175836
vt 0.891068 0.055836
vt 0.750000 0.490000
vt 0.891068 0.444164
vt 0.978254 0.324164
vt 0.978254 0.175836
vt 0.891068 0.055836
vt 0.750000 0.010000
vt 0.608932 0.055836
vt 0.521746 0.175836
vt 0.521746 0.324164
vt 0.608932 0.444164
vt 0.300000 0.500000
vt 0.400000 0.500000
vt 0.900000 0.500000
vt 1.000000 0.500000
vt 0.200000 0.500000
vt 0.500000 0.500000
vt 0.600000 0.500000
vt 0.800000 0.500000
vt 0.700000 0.500000
vn -0.0301 -0.8042 -0.5936
vn 0.4261 -0.8600 -0.2807
vn 0.7606 -0.6333 0.1431
vn 0.4538 -0.8878 -0.0760
vn 0.0814 -0.9965 0.0196
vn -0.0581 -0.9971 0.0491
vn -0.1849 -0.9499 0.2520
vn -0.7894 -0.6009 -0.1259
vn 0.0344 0.9839 0.1754
vn -0.8405 0.2364 -0.4875
vn -0.4919 -0.3423 -0.8005
vn 0.5599 -0.3566 -0.7479
vn 0.3090 0.0000 0.9511
vn 0.2494 -0.7300 -0.6363
vn 0.7126 -0.6989 0.0606
vn 0.5453 -0.7237 -0.4230
vn -0.3363 -0.4624 -0.8204
vn -0.6302 -0.6745 -0.3846
vn -0.6164 -0.7873 -0.0136
vn -0.4708 -0.6836 0.5578
vn -0.2447 -0.5581 0.7929
vn 0.2270 -0.6360 0.7376
vn -0.6643 -0.2236 0.7132
vn -0.2034 -0.9685 -0.1436
vn -0.2623 -0.4589 0.8489
vn 0.7105 0.5804 0.3980
vn 0.5672 -0.7402 0.3611
vn 0.7313 0.5361 0.4217
vn -0.7633 -0.3546 -0.5401
vn -0.0244 -0.2864 -0.9578
vn -0.0700 -0.9832 -0.1686
vn 0.5891 -0.5510 -0.5911
vn 0.0631 -0.9980 -0.0103
vn -0.3090 -0.0000 0.9511
vn 0.9695 0.2294 0.0867
vn 0.1212 -0.9391 0.3216
vn -0.8283 -0.1138 0.5486
vn 0.8090 0.0000 0.5878
vn -0.1941 -0.7408 0.6431
vn -0.2201 -0.9755 0.0043
usemtl trunk
s off
f 1/1/1 2/2/1 4/3/1 3/4/1
f 3/4/2 4/3/2 6/5/2 5/6/2
f 5/6/3 6/5/3 8/7/3 7/8/3
f 7/8/4 8/7/4 10/9/4 9/10/4
f 9/10/5 10/9/5 12/11/5 11/12/5
f 11/12/6 12/11/6 14/13/6 13/14/6
f 13/14/7 14/13/7 16/15/7 15/16/7
f 15/16/8 16/15/8 18/17/8 17/18/8
f 4/19/9 2/20/9 20/21/9 18/22/9 16/23/9 14/24/9 12/25/9 10/26/9 8/27/9 6/28/9
f 17/18/10 18/17/10 20/29/10 19/30/10
f 19/30/11 20/29/11 2/31/11 1/32/11
f 24/33/12 7/8/12 31/34/12 33/35/12
f 30/36/13 21/37/13 39/38/13 48/39/13
f 1/1/14 3/4/14 22/40/14 21/41/14
f 5/6/15 7/8/15 24/33/15 23/42/15
f 3/4/16 5/6/16 23/42/16 22/40/16
f 19/30/17 1/32/17 21/37/17 30/36/17
f 17/18/18 19/30/18 30/36/18 29/43/18
f 15/16/19 17/18/19 29/43/19 28/44/19
f 13/14/20 15/16/20 28/44/20 27/45/20
f 11/12/21 13/14/21 27/45/21 26/46/21
f 9/10/22 11/12/22 26/46/22 25/47/22
f 32/48/23 34/49/23 38/50/23 36/51/23
f 25/52/24 24/53/24 33/54/24 34/55/24
f 9/10/25 25/47/25 34/49/25 32/48/25
f 7/8/26 9/10/26 32/48/26 31/34/26
f 35/56/27 36/51/27 38/50/27 37/57/27
f 31/34/28 32/48/28 36/51/28 35/56/28
f 33/35/29 31/34/29 35/56/29 37/57/29
f 34/55/30 33/54/30 37/58/30 38/59/30
f 39/60/31 40/61/31 41/62/31 42/63/31 43/64/31 44/65/31 45/66/31 46/67/31 47/68/31 48/69/31
f 27/45/32 28/44/32 46/70/32 45/71/32
f 24/53/33 25/52/33 43/64/33 42/63/33
f 21/41/34 22/40/34 40/72/34 39/73/34
f 28/44/35 29/43/35 47/74/35 46/70/35
f 25/47/36 26/46/36 44/75/36 43/76/36
f 22/40/37 23/42/37 41/77/37 40/72/37
f 29/43/38 30/36/38 48/39/38 47/74/38
f 26/46/39 27/45/39 45/71/39 44/75/39
f 23/42/40 24/33/40 42/78/40 41/77/40
o trunk_Collider
v -0.131490 0.798369 -0.124476
v -0.178780 0.859414 -0.176837
v -0.112532 0.757156 -0.041658
v -0.045253 0.821588 -0.155881
v -0.024244 0.761437 0.060277
v 0.046182 0.824513 -0.007129
v -0.046979 0.757156 0.189898
v 0.001443 0.821611 0.190020
v -0.103785 0.759289 0.289735
v 0.018713 0.780399 0.310676
v -0.221975 0.761047 0.326178
v -0.149645 0.759068 0.468504
v -0.339935 0.761437 0.291424
v -0.330211 0.770272 0.385587
v -0.451281 0.746362 0.206632
v -0.500556 0.778690 0.238608
v -0.471951 0.765533 0.122057
v -0.498744 0.821909 0.143676
v -0.452753 0.790526 0.020319
v -0.348176 0.880350 -0.035678
v -0.240193 0.689669 -0.014281
v -0.156150 0.689669 0.013026
v -0.104209 0.689669 0.084517
v -0.104209 0.689669 0.172885
v -0.155265 0.698230 0.245734
v -0.240193 0.689669 0.271684
v -0.324236 0.689669 0.244376
v -0.376177 0.689669 0.172885
v -0.376177 0.689669 0.084517
v -0.324236 0.689669 0.013026
vn -0.0042 -0.7985 -0.6020
vn 0.4261 -0.8600 -0.2807
vn 0.7606 -0.6333 0.1431
vn 0.4538 -0.8878 -0.0760
vn 0.0814 -0.9965 0.0196
vn -0.0581 -0.9971 0.0491
vn -0.1849 -0.9499 0.2520
vn -0.7894 -0.6009 -0.1259
vn 0.0344 0.9839 0.1754
vn -0.8434 0.3536 -0.4044
vn -0.4715 -0.3893 -0.7913
vn 0.2896 -0.7754 -0.5611
vn 0.7126 -0.6989 0.0606
vn 0.5453 -0.7237 -0.4230
vn -0.3438 -0.4399 -0.8296
vn -0.6212 -0.6982 -0.3559
vn -0.6164 -0.7873 -0.0136
vn -0.4708 -0.6836 0.5578
vn -0.2447 -0.5581 0.7929
vn 0.2412 -0.6577 0.7136
vn 0.0070 -0.9999 0.0097
usemtl None
s off
f 49//41 50//41 52//41 51//41
f 51//42 52//42 54//42 53//42
f 53//43 54//43 56//43 55//43
f 55//44 56//44 58//44 57//44
f 57//45 58//45 60//45 59//45
f 59//46 60//46 62//46 61//46
f 61//47 62//47 64//47 63//47
f 63//48 64//48 66//48 65//48
f 52//49 50//49 68//49 66//49 64//49 62//49 60//49 58//49 56//49 54//49
f 65//50 66//50 68//50 67//50
f 67//51 68//51 50//51 49//51
f 49//52 51//52 70//52 69//52
f 53//53 55//53 72//53 71//53
f 51//54 53//54 71//54 70//54
f 67//55 49//55 69//55 78//55
f 65//56 67//56 78//56 77//56
f 63//57 65//57 77//57 76//57
f 61//58 63//58 76//58 75//58
f 59//59 61//59 75//59 74//59
f 57//60 59//60 74//60 73//60
f 69//61 70//61 71//61 72//61 73//61 74//61 75//61 76//61 77//61 78//61
