# Blender v3.0.0 OBJ File: 'trunkLong.blend'
# www.blender.org
mtllib trunkLong.mtl
o trunk_long
v 0.596532 -1.459799 -0.161381
v -0.033150 0.325960 -0.184575
v 0.755236 -1.468505 -0.087624
v 0.114524 0.317690 -0.216468
v 0.843787 -1.452450 0.049170
v 0.285317 0.300000 -0.092705
v 0.789142 -1.469559 0.226736
v 0.285317 0.300000 0.092705
v 0.739740 -1.449383 0.308743
v 0.176336 0.300000 0.242705
v 0.579706 -1.449383 0.360741
v 0.010137 0.312634 0.222609
v 0.410025 -1.484233 0.405506
v -0.182835 0.301858 0.246414
v 0.328550 -1.468505 0.222382
v -0.261285 0.317690 0.056573
v 0.328550 -1.468505 0.051015
v -0.261285 0.317690 -0.094360
v 0.426167 -1.453793 -0.099640
v -0.176696 0.325960 -0.137934
v 0.600289 -1.766334 -0.135253
v 0.763268 -1.766334 -0.082298
v 0.851820 -1.750279 0.054496
v 0.851820 -1.750279 0.222766
v 0.739836 -1.756165 0.297235
v 0.579802 -1.756165 0.349233
v 0.415160 -1.774011 0.393101
v 0.336582 -1.766334 0.227707
v 0.336582 -1.766334 0.056341
v 0.429924 -1.760328 -0.073512
v 0.108112 0.625857 -0.180571
v -0.016260 0.623559 -0.226964
v 0.255893 0.610550 -0.073484
v 0.255893 0.610550 0.086944
v 0.161596 0.610550 0.216733
v 0.005899 0.602974 0.277203
v -0.154312 0.601884 0.245522
v -0.217060 0.625857 0.055681
v -0.217060 0.625857 -0.074916
v -0.140465 0.623559 -0.186608
v 0.112443 0.766854 -0.177424
v -0.011762 0.766854 -0.217781
v 0.260223 0.751548 -0.070337
v 0.260223 0.751548 0.090091
v 0.165926 0.751548 0.219880
v 0.013350 0.751548 0.269455
v -0.141610 0.759855 0.207684
v -0.212729 0.766854 0.058827
v -0.212729 0.766854 -0.071769
v -0.135967 0.766854 -0.177424
v 0.112515 0.984442 -0.133344
v 0.008545 0.984751 -0.167117
v 0.239039 0.969001 -0.041751
v 0.239023 0.969731 0.085839
v 0.159773 0.970530 0.194910
v 0.039762 0.971498 0.233918
v -0.092378 0.969972 0.126461
v -0.161208 0.959751 0.032567
v -0.161224 0.962484 -0.057233
v -0.102479 0.963811 -0.118616
v -0.447791 0.708881 -0.251733
v -0.477292 0.708881 -0.211128
v -0.446126 0.763068 -0.250524
v -0.475627 0.763068 -0.209919
v -0.545204 0.740783 -0.258664
v -0.557065 0.740783 -0.242339
v -0.544535 0.762569 -0.258178
v -0.556395 0.762569 -0.241853
v 0.602791 -1.843287 -0.134323
v 0.765770 -1.843287 -0.081368
v 0.854322 -1.827232 0.055426
v 0.854322 -1.827232 0.223695
v 0.742338 -1.833118 0.298165
v 0.582304 -1.833118 0.350163
v 0.417662 -1.850964 0.394031
v 0.339084 -1.843287 0.228637
v 0.339084 -1.843287 0.057270
v 0.432426 -1.837281 -0.072582
v 0.606430 -1.955205 -0.132971
v 0.769409 -1.955205 -0.080016
v 0.857961 -1.939150 0.056778
v 0.857961 -1.939150 0.225048
v 0.745977 -1.945036 0.299517
v 0.585943 -1.945036 0.351515
v 0.442354 -1.972226 0.312413
v 0.342723 -1.955205 0.229989
v 0.342723 -1.955205 0.058623
v 0.436065 -1.949199 -0.071230
v 0.615291 -1.946481 -0.063538
v 0.751681 -1.947338 -0.019212
v 0.826073 -1.932094 0.095741
v 0.826086 -1.932603 0.239165
v 0.725145 -1.951259 0.314004
v 0.592853 -1.942825 0.361319
v 0.431056 -1.945201 0.362045
v 0.390878 -1.946489 0.250134
v 0.390867 -1.946081 0.098652
v 0.469449 -1.940031 -0.010723
v 0.876142 -1.786781 -0.083243
v 0.899539 -1.782539 -0.047100
v 0.876803 -1.807113 -0.082997
v 0.900200 -1.802871 -0.046854
v 0.932607 -1.789988 -0.105615
v 0.943105 -1.788085 -0.089399
v 0.932904 -1.799110 -0.105505
v 0.943401 -1.797207 -0.089288
v 0.988901 -1.790406 -0.136584
v 0.994330 -1.789422 -0.128196
v 0.989054 -1.795125 -0.136527
v 0.994484 -1.794140 -0.128139
v 0.315536 0.376066 0.297453
v 0.344782 0.389564 0.159348
v 0.271183 0.574301 0.233129
v 0.327278 0.574301 0.155921
v 0.414497 0.435709 0.332142
v 0.408326 0.449207 0.242783
v 0.374934 0.533022 0.276258
v 0.400385 0.533022 0.241228
v 0.448646 0.475974 0.319316
v 0.464148 0.475974 0.297979
v 0.446549 0.520149 0.315621
v 0.459962 0.520149 0.297159
v 0.109465 1.008255 -0.156011
v -0.014740 1.008255 -0.196368
v 0.257245 0.992948 -0.048924
v 0.257245 0.992948 0.111504
v 0.162948 0.992948 0.241293
v 0.010372 0.992948 0.290868
v -0.142290 0.991331 0.166727
v -0.221789 0.981191 0.058368
v -0.221806 0.984564 -0.060203
v -0.146701 0.986639 -0.138680
v 0.608657 -2.023708 -0.132143
v 0.771636 -2.023708 -0.079188
v 0.860188 -2.007653 0.057606
v 0.828795 -2.018930 0.225041
v 0.719933 -2.028021 0.281140
v 0.570092 -2.024302 0.333655
v 0.399781 -2.037588 0.238664
v 0.363373 -2.025722 0.194501
v 0.344951 -2.023708 0.059450
v 0.438292 -2.017701 -0.070402
v 0.622340 -1.946678 -0.062509
v 0.758730 -1.947535 -0.018183
v 0.833122 -1.932290 0.096770
v 0.833908 -1.917627 0.187113
v 0.734657 -1.948259 0.311912
v 0.598830 -1.951887 0.353522
v 0.430214 -1.957573 0.323035
v 0.397927 -1.946686 0.251163
v 0.397916 -1.946277 0.099681
v 0.476498 -1.940228 -0.009694
v 0.323390 -1.906339 0.395338
v 0.284570 -1.902546 0.313628
v 0.335588 -1.966246 0.355016
v 0.286368 -1.957838 0.314296
v 0.231767 -1.949584 0.427313
v 0.212251 -1.947678 0.386235
v 0.237899 -1.979701 0.407042
v 0.213155 -1.975474 0.386571
v 0.201805 -1.961707 0.443634
v 0.184909 -1.960057 0.408070
v 0.207114 -1.987781 0.426084
v 0.185691 -1.984121 0.408361
vt 1.000000 0.500000
vt 1.000000 1.000000
vt 0.900000 1.000000
vt 0.900000 0.500000
vt 0.800000 1.000000
vt 0.800000 0.500000
vt 0.700000 1.000000
vt 0.700000 0.500000
vt 0.600000 1.000000
vt 0.600000 0.500000
vt 0.500000 1.000000
vt 0.500000 0.500000
vt 0.400000 1.000000
vt 0.400000 0.500000
vt 0.300000 1.000000
vt 0.300000 0.500000
vt 0.200000 1.000000
vt 0.200000 0.500000
vt 0.500000 1.000000
vt 0.400000 1.000000
vt 0.100000 1.000000
vt 0.100000 0.500000
vt -0.000000 1.000000
vt -0.000000 0.500000
vt 0.800000 0.500000
vt 0.900000 0.500000
vt 0.700000 0.500000
vt 0.700000 0.500000
vt 0.800000 0.500000
vt -0.000000 0.500000
vt 0.100000 0.500000
vt 0.200000 0.500000
vt 0.300000 0.500000
vt 0.400000 0.500000
vt 0.500000 0.500000
vt 0.600000 0.500000
vt 1.000000 0.500000
vt 0.700000 1.000000
vt 0.800000 1.000000
vt 0.800000 1.000000
vt 0.700000 1.000000
vt 0.600000 1.000000
vt 0.700000 1.000000
vt 0.700000 1.000000
vt 1.000000 1.000000
vt 0.900000 1.000000
vt 0.100000 1.000000
vt -0.000000 1.000000
vt 0.200000 1.000000
vt 0.300000 1.000000
vt -0.000000 1.000000
vt 0.100000 1.000000
vt 0.100000 1.000000
vt -0.000000 1.000000
vt 0.400000 1.000000
vt 0.300000 1.000000
vt 0.600000 1.000000
vt 1.000000 1.000000
vt 0.900000 1.000000
vt 0.200000 1.000000
vt 0.500000 1.000000
vt 0.100000 1.000000
vt 0.100000 1.000000
vt 0.353723 0.406592
vt 0.244973 0.446582
vt 0.126607 0.400405
vt 0.060229 0.307485
vt 0.058911 0.189243
vt 0.128951 0.085593
vt 0.252801 0.040619
vt 0.364150 0.084825
vt 0.438015 0.186878
vt 0.442454 0.307177
vt 0.400000 1.000000
vt 0.300000 1.000000
vt 0.700000 1.000000
vt 0.600000 1.000000
vt 1.000000 1.000000
vt 0.900000 1.000000
vt 0.200000 1.000000
vt 0.500000 1.000000
vt 0.800000 1.000000
vt 0.200000 1.000000
vt 0.200000 1.000000
vt 0.200000 1.000000
vt 0.200000 1.000000
vt 0.100000 1.000000
vt 0.100000 1.000000
vt 0.200000 0.500000
vt 0.100000 0.500000
vt 0.100000 0.500000
vt 0.200000 0.500000
vt -0.000000 0.500000
vt 0.300000 0.500000
vt 0.400000 0.500000
vt 0.600000 0.500000
vt 0.900000 0.500000
vt 1.000000 0.500000
vt 0.500000 0.500000
vt 0.800000 0.500000
vt 0.900000 0.500000
vt 0.500000 0.500000
vt 0.400000 0.500000
vt 0.400000 0.500000
vt 0.500000 0.500000
vt 0.700000 0.500000
vt 0.800000 0.500000
vt -0.000000 0.500000
vt 0.300000 0.500000
vt 0.400000 0.500000
vt 0.600000 0.500000
vt 0.900000 0.500000
vt 1.000000 0.500000
vt 0.300000 0.500000
vt 0.752159 0.453947
vt 0.870667 0.414783
vt 0.942204 0.313801
vt 0.943144 0.187477
vt 0.869727 0.086077
vt 0.751623 0.047282
vt 0.622784 0.084752
vt 0.562781 0.181754
vt 0.558339 0.313651
vt 0.629794 0.412664
vt 0.700000 0.500000
vt 0.800000 0.500000
vt -0.000000 0.500000
vt 0.100000 0.500000
vt 0.300000 0.500000
vt 0.600000 0.500000
vt 0.900000 0.500000
vt 1.000000 0.500000
vt 0.200000 0.500000
vt 0.800000 0.500000
vt 0.800000 0.500000
vt 0.800000 0.500000
vt 0.900000 0.500000
vt 0.900000 0.500000
vt 0.900000 0.500000
vt 0.900000 0.500000
vt 0.900000 0.500000
vt 0.800000 0.500000
vt 0.800000 0.500000
vt 0.600000 1.000000
vt 0.700000 1.000000
vt 0.600000 1.000000
vt 0.600000 1.000000
vt 0.700000 1.000000
vt 0.700000 1.000000
vt 0.700000 1.000000
vt 0.600000 1.000000
vt 0.600000 1.000000
vt 0.600000 1.000000
vt 0.384363 0.444388
vt 0.244343 0.491115
vt 0.474218 0.324670
vt 0.473172 0.175840
vt 0.385899 0.055862
vt 0.244664 0.007473
vt 0.102158 0.035293
vt 0.018719 0.165274
vt 0.018486 0.319642
vt 0.106532 0.450700
vt 0.870667 0.414783
vt 0.752159 0.453947
vt 0.750000 0.490000
vt 0.891068 0.444164
vt 0.942204 0.313801
vt 0.978254 0.324164
vt 0.943144 0.187477
vt 0.978254 0.175836
vt 0.869727 0.086077
vt 0.891068 0.055836
vt 0.751623 0.047282
vt 0.750000 0.010000
vt 0.622784 0.084752
vt 0.608932 0.055836
vt 0.562781 0.181754
vt 0.521746 0.175836
vt 0.558339 0.313651
vt 0.521746 0.324164
vt 0.629794 0.412664
vt 0.608932 0.444164
vt 0.300000 0.500000
vt 0.300000 0.500000
vt 0.300000 0.500000
vt 0.400000 0.500000
vt 0.400000 0.500000
vt 0.400000 0.500000
vt 0.400000 0.500000
vt 0.400000 0.500000
vt 0.300000 0.500000
vt 0.300000 0.500000
vn 0.1357 0.0061 -0.9907
vn 0.6973 0.1833 -0.6929
vn 0.9423 0.2964 0.1558
vn 0.8052 0.2741 0.5258
vn 0.1004 0.0900 0.9909
vn 0.1674 0.1366 0.9764
vn -0.8945 -0.2633 0.3613
vn -0.9496 -0.3136 0.0000
vn -0.0192 -0.0898 0.9958
vn -0.6875 -0.2648 -0.6762
vn -0.3258 -0.1288 -0.9366
vn 0.8387 0.0129 -0.5444
vn 0.9995 0.0325 0.0000
vn -0.3421 -0.0840 -0.9359
vn -0.8242 -0.0455 -0.5645
vn -0.9996 -0.0270 0.0000
vn -0.9091 -0.0254 0.4158
vn 0.2614 -0.0364 0.9645
vn 0.3088 -0.0356 0.9505
vn 0.6976 0.0557 0.7144
vn 0.3652 -0.0413 -0.9300
vn 0.9797 0.1201 0.1607
vn 0.9995 -0.0307 0.0000
vn 0.1237 -0.0433 0.9914
vn 0.7079 0.0540 -0.7042
vn 0.0530 -0.0116 -0.9985
vn 0.9955 0.0943 0.0000
vn 0.5906 0.1055 -0.8000
vn -0.3069 -0.1171 -0.9445
vn -0.6937 0.0575 -0.7179
vn -0.9899 0.1421 0.0000
vn -0.9275 0.1120 0.3567
vn -0.3634 0.1099 -0.9251
vn -0.3082 0.0705 -0.9487
vn -0.9227 0.0959 0.3735
vn 0.8084 -0.0379 0.5874
vn 0.3291 0.0307 -0.9438
vn -0.9995 0.0307 0.0000
vn 0.3362 0.0013 0.9418
vn 0.5868 0.0000 -0.8097
vn 0.2238 0.0443 -0.9736
vn -0.2773 0.1591 0.9475
vn -0.0219 0.9995 0.0225
vn -0.8627 0.0281 0.5049
vn 0.8083 -0.0421 0.5873
vn 0.3078 0.0878 -0.9474
vn -0.9991 -0.0419 -0.0005
vn 0.3080 -0.0803 0.9480
vn 0.5903 0.0785 -0.8034
vn -0.7711 0.0382 -0.6356
vn -0.5165 0.0314 0.8557
vn 0.9999 0.0123 0.0000
vn -0.3676 -0.0095 0.9299
vn -0.2327 -0.9613 -0.1476
vn -0.0104 0.9999 -0.0076
vn -0.4651 -0.0055 0.8852
vn -0.8084 0.0379 -0.5874
vn -0.0048 1.0000 -0.0035
vn 0.0774 0.0199 -0.9968
vn -0.2906 -0.9333 -0.2111
vn -0.8108 -0.0334 -0.5844
vn -0.3413 -0.0225 -0.9397
vn -0.9034 -0.0242 0.4281
vn 0.5525 0.0280 0.8330
vn 0.3090 -0.0014 -0.9511
vn -0.9995 -0.0325 0.0000
vn 0.3089 0.0215 0.9508
vn 0.1719 0.9593 -0.2239
vn 0.2554 0.0200 0.9666
vn -0.3115 -0.4155 0.8546
vn 0.0611 -0.3182 0.9460
vn -0.4850 0.8321 0.2691
vn 0.8382 0.0207 -0.5450
vn 0.0166 -0.9999 -0.0025
vn 0.9804 -0.1776 0.0857
vn -0.6690 -0.3972 0.6283
vn 0.5041 -0.2639 0.8224
vn -0.9827 -0.1761 0.0579
vn 0.3036 -0.2817 0.9102
vn 0.6983 0.0313 0.7151
vn 0.9088 0.0346 0.4159
vn 0.3074 -0.9475 -0.0878
vn -0.0106 -0.0124 -0.9999
vn -0.4820 -0.0263 -0.8758
vn 0.0081 0.9925 -0.1218
vn -0.3694 -0.0232 -0.9290
vn 0.1489 -0.9887 0.0196
vn 0.0994 -0.9937 0.0523
vn 0.6040 0.0293 0.7965
vn -0.0419 0.9951 -0.0897
vn 0.6068 -0.7942 -0.0327
vn 0.5410 -0.8113 0.2216
vn 0.2799 0.9382 0.2034
vn -0.2922 0.1341 0.9469
vn 0.6895 0.0519 -0.7225
vn 0.7724 0.0615 -0.6322
vn 0.2859 0.9355 0.2077
vn -0.3665 0.2594 0.8935
vn 0.8059 0.0872 0.5855
vn 0.1269 0.9876 0.0922
vn -0.3033 0.2926 0.9069
vn 0.6104 -0.7908 -0.0450
vn -0.2320 0.6575 0.7169
vn -0.4380 0.5722 0.6933
vn -0.7911 0.6117 -0.0016
vn -0.4894 0.7951 -0.3582
vn -0.1318 0.9000 -0.4155
vn 0.1975 0.9464 -0.2557
vn 0.2146 0.9435 -0.2524
vn 0.3425 0.9391 0.0275
vn 0.3126 0.8940 0.3209
vn 0.1177 0.7991 0.5896
vn -0.2419 -0.6289 0.7389
vn -0.6873 -0.5179 0.5093
vn -0.9858 -0.1217 -0.1155
vn -0.6601 0.0427 -0.7500
vn -0.2899 0.3757 -0.8802
vn 0.2847 0.4633 -0.8392
vn 0.8646 0.0857 -0.4951
vn 0.8867 -0.4583 -0.0609
vn 0.6335 -0.6482 0.4226
vn 0.2289 -0.6715 0.7048
vn -0.0451 -0.9918 0.1197
vn -0.0514 -0.9851 0.1639
vn 0.7644 -0.6437 0.0364
vn 0.1161 0.9309 0.3462
vn -0.2379 0.6165 -0.7506
vn 0.0152 0.9097 -0.4149
vn 0.5573 0.8112 -0.1774
vn 0.0275 0.9996 0.0027
vn 0.0179 0.9975 0.0680
vn 0.0325 0.9990 -0.0321
vn -0.6984 -0.0313 -0.7151
vn -0.0926 -0.9914 -0.0928
vn -0.8304 -0.0337 -0.5561
vn 0.2992 -0.4901 0.8187
vn 0.5565 -0.3829 0.7373
vn 0.0165 -0.9751 -0.2213
vn 0.4704 -0.4248 0.7735
vn -0.3559 0.9103 0.2113
vn -0.7919 -0.2825 0.5413
vn -0.2839 0.9421 0.1786
vn -0.6155 -0.0295 -0.7875
vn 0.0736 -0.9553 -0.2863
usemtl trunk_long
s off
f 1/1/1 2/2/1 4/3/1 3/4/1
f 3/4/2 4/3/2 6/5/2 5/6/2
f 5/6/3 6/5/3 8/7/3 7/8/3
f 7/8/4 8/7/4 10/9/4 9/10/4
f 9/10/5 10/9/5 12/11/5 11/12/5
f 11/12/6 12/11/6 14/13/6 13/14/6
f 13/14/7 14/13/7 16/15/7 15/16/7
f 15/16/8 16/15/8 18/17/8 17/18/8
f 14/13/9 12/11/9 36/19/9 37/20/9
f 17/18/10 18/17/10 20/21/10 19/22/10
f 19/22/11 20/21/11 2/23/11 1/24/11
f 3/4/12 5/6/12 23/25/12 22/26/12
f 23/25/13 24/27/13 72/28/13 71/29/13
f 19/22/14 1/24/14 21/30/14 30/31/14
f 17/18/15 19/22/15 30/31/15 29/32/15
f 15/16/16 17/18/16 29/32/16 28/33/16
f 13/14/17 15/16/17 28/33/17 27/34/17
f 11/12/18 13/14/18 27/34/18 26/35/18
f 9/10/19 11/12/19 26/35/19 25/36/19
f 7/8/20 9/10/20 25/36/20 24/27/20
f 1/1/21 3/4/21 22/26/21 21/37/21
f 5/6/22 7/8/22 24/27/22 23/25/22
f 34/38/23 33/39/23 43/40/23 44/41/23
f 12/11/24 10/9/24 35/42/24 36/19/24
f 8/7/25 34/38/25 114/43/25 112/44/25
f 4/3/26 2/2/26 32/45/26 31/46/26
f 8/7/27 6/5/27 33/39/27 34/38/27
f 6/5/28 4/3/28 31/46/28 33/39/28
f 2/23/29 20/21/29 40/47/29 32/48/29
f 20/21/30 18/17/30 39/49/30 40/47/30
f 18/17/31 16/15/31 38/50/31 39/49/31
f 16/15/32 14/13/32 37/20/32 38/50/32
f 42/51/33 50/52/33 132/53/33 124/54/33
f 32/48/34 40/47/34 50/52/34 42/51/34
f 38/50/35 37/20/35 47/55/35 48/56/35
f 35/42/36 34/38/36 44/41/36 45/57/36
f 31/46/37 32/45/37 42/58/37 41/59/37
f 39/49/38 38/50/38 48/56/38 49/60/38
f 36/19/39 35/42/39 45/57/39 46/61/39
f 33/39/40 31/46/40 41/59/40 43/40/40
f 50/52/41 40/47/41 61/62/41 63/63/41
f 37/20/42 36/19/42 46/61/42 47/55/42
f 51/64/43 52/65/43 60/66/43 59/67/43 58/68/43 57/69/43 56/70/43 55/71/43 54/72/43 53/73/43
f 48/56/44 47/55/44 129/74/44 130/75/44
f 45/57/45 44/41/45 126/76/45 127/77/45
f 41/59/46 42/58/46 124/78/46 123/79/46
f 49/60/47 48/56/47 130/75/47 131/80/47
f 46/61/48 45/57/48 127/77/48 128/81/48
f 43/40/49 41/59/49 123/79/49 125/82/49
f 50/52/50 49/60/50 131/80/50 132/53/50
f 47/55/51 46/61/51 128/81/51 129/74/51
f 44/41/52 43/40/52 125/82/52 126/76/52
f 62/83/53 64/84/53 68/85/53 66/86/53
f 40/47/54 39/49/54 62/83/54 61/62/54
f 49/60/55 50/52/55 63/63/55 64/84/55
f 39/49/56 49/60/56 64/84/56 62/83/56
f 65/87/57 66/86/57 68/85/57 67/88/57
f 64/84/58 63/63/58 67/88/58 68/85/58
f 63/63/59 61/62/59 65/87/59 67/88/59
f 61/62/60 62/83/60 66/86/60 65/87/60
f 77/89/61 78/90/61 88/91/61 87/92/61
f 30/31/62 21/30/62 69/93/62 78/90/62
f 27/34/63 28/33/63 76/94/63 75/95/63
f 24/27/64 25/36/64 73/96/64 72/28/64
f 21/37/65 22/26/65 70/97/65 69/98/65
f 28/33/66 29/32/66 77/89/66 76/94/66
f 25/36/67 26/35/67 74/99/67 73/96/67
f 22/26/68 23/25/68 100/100/68 99/101/68
f 29/32/61 30/31/61 78/90/61 77/89/61
f 26/35/69 27/34/69 75/95/69 74/99/69
f 84/102/70 85/103/70 139/104/70 138/105/70
f 74/99/71 75/95/71 85/103/71 84/102/71
f 71/29/13 72/28/13 82/106/13 81/107/13
f 78/90/62 69/93/62 79/108/62 88/91/62
f 75/95/72 76/94/72 154/109/72 153/110/72
f 72/28/64 73/96/64 83/111/64 82/106/64
f 69/98/65 70/97/65 80/112/65 79/113/65
f 76/94/66 77/89/66 87/92/66 86/114/66
f 73/96/67 74/99/67 84/102/67 83/111/67
f 70/97/73 71/29/73 81/107/73 80/112/73
f 89/115/74 90/116/74 91/117/74 92/118/74 93/119/74 94/120/74 95/121/74 96/122/74 97/123/74 98/124/74
f 81/107/75 82/106/75 136/125/75 135/126/75
f 88/91/62 79/108/62 133/127/62 142/128/62
f 85/103/76 86/114/76 140/129/76 139/104/76
f 82/106/77 83/111/77 137/130/77 136/125/77
f 79/113/65 80/112/65 134/131/65 133/132/65
f 86/114/78 87/92/78 141/133/78 140/129/78
f 83/111/79 84/102/79 138/105/79 137/130/79
f 80/112/73 81/107/73 135/126/73 134/131/73
f 87/92/61 88/91/61 142/128/61 141/133/61
f 100/100/80 102/134/80 106/135/80 104/136/80
f 23/25/81 71/29/81 102/134/81 100/100/81
f 71/29/82 70/97/82 101/137/82 102/134/82
f 70/97/83 22/26/83 99/101/83 101/137/83
f 105/138/84 103/139/84 107/140/84 109/141/84
f 99/101/85 100/100/85 104/136/85 103/139/85
f 101/137/86 99/101/86 103/139/86 105/138/86
f 102/134/87 101/137/87 105/138/87 106/135/87
f 107/140/73 108/142/73 110/143/73 109/141/73
f 106/135/88 105/138/88 109/141/88 110/143/88
f 104/136/89 106/135/89 110/143/89 108/142/89
f 103/139/90 104/136/90 108/142/90 107/140/90
f 111/144/91 112/44/91 116/145/91 115/146/91
f 10/9/92 8/7/92 112/44/92 111/144/92
f 34/38/93 35/42/93 113/147/93 114/43/93
f 35/42/94 10/9/94 111/144/94 113/147/94
f 116/145/95 118/148/95 122/149/95 120/150/95
f 112/44/96 114/43/96 118/148/96 116/145/96
f 114/43/97 113/147/97 117/151/97 118/148/97
f 113/147/98 111/144/98 115/146/98 117/151/98
f 119/152/99 120/150/99 122/149/99 121/153/99
f 118/148/100 117/151/100 121/153/100 122/149/100
f 117/151/101 115/146/101 119/152/101 121/153/101
f 115/146/102 116/145/102 120/150/102 119/152/102
f 52/65/103 51/64/103 123/154/103 124/155/103
f 51/64/104 53/73/104 125/156/104 123/154/104
f 53/73/105 54/72/105 126/157/105 125/156/105
f 54/72/106 55/71/106 127/158/106 126/157/106
f 55/71/107 56/70/107 128/159/107 127/158/107
f 56/70/108 57/69/108 129/160/108 128/159/108
f 57/69/109 58/68/109 130/161/109 129/160/109
f 58/68/110 59/67/110 131/162/110 130/161/110
f 59/67/111 60/66/111 132/163/111 131/162/111
f 60/66/112 52/65/112 124/155/112 132/163/112
f 144/164/113 143/165/113 133/166/113 134/167/113
f 145/168/114 144/164/114 134/167/114 135/169/114
f 146/170/115 145/168/115 135/169/115 136/171/115
f 147/172/116 146/170/116 136/171/116 137/173/116
f 148/174/117 147/172/117 137/173/117 138/175/117
f 149/176/118 148/174/118 138/175/118 139/177/118
f 150/178/119 149/176/119 139/177/119 140/179/119
f 151/180/120 150/178/120 140/179/120 141/181/120
f 152/182/121 151/180/121 141/181/121 142/183/121
f 143/165/122 152/182/122 142/183/122 133/166/122
f 90/116/123 89/115/123 143/165/123 144/164/123
f 91/117/124 90/116/124 144/164/124 145/168/124
f 92/118/125 91/117/125 145/168/125 146/170/125
f 93/119/126 92/118/126 146/170/126 147/172/126
f 94/120/127 93/119/127 147/172/127 148/174/127
f 95/121/128 94/120/128 148/174/128 149/176/128
f 96/122/129 95/121/129 149/176/129 150/178/129
f 97/123/130 96/122/130 150/178/130 151/180/130
f 98/124/131 97/123/131 151/180/131 152/182/131
f 89/115/132 98/124/132 152/182/132 143/165/132
f 154/109/133 156/184/133 160/185/133 158/186/133
f 86/114/134 85/103/134 155/187/134 156/184/134
f 76/94/135 86/114/135 156/184/135 154/109/135
f 85/103/136 75/95/136 153/110/136 155/187/136
f 159/188/137 157/189/137 161/190/137 163/191/137
f 156/184/138 155/187/138 159/188/138 160/185/138
f 155/187/139 153/110/139 157/189/139 159/188/139
f 153/110/140 154/109/140 158/186/140 157/189/140
f 161/190/141 162/192/141 164/193/141 163/191/141
f 157/189/142 158/186/142 162/192/142 161/190/142
f 158/186/143 160/185/143 164/193/143 162/192/143
f 160/185/144 159/188/144 163/191/144 164/193/144
