# Blender v3.0.0 OBJ File: 'zauberstab.blend'
# www.blender.org
mtllib wand_collider.mtl
o Wand_Collider_Cylinder
v -1.138413 0.005972 -0.050523
v 1.947067 0.005798 -0.039098
v -1.138644 0.008599 -0.027585
v 1.946836 0.008425 -0.016160
v -1.138865 0.017074 -0.005438
v 1.946615 0.016900 0.005987
v -1.139069 0.031073 0.015067
v 1.946411 0.030899 0.026491
v -1.139248 0.050057 0.033141
v 1.946232 0.049883 0.044566
v -1.139395 0.073297 0.048092
v 1.946085 0.073123 0.059516
v -1.139504 0.099899 0.059343
v 1.945976 0.099725 0.070767
v -1.139572 0.128842 0.066462
v 1.945908 0.128668 0.077887
v -1.139594 0.159013 0.069177
v 1.945886 0.158839 0.080602
v -1.139572 0.189252 0.067382
v 1.945908 0.189078 0.078807
v -1.139504 0.218398 0.061147
v 1.945976 0.218224 0.072571
v -1.139395 0.245331 0.050710
v 1.946085 0.245157 0.062135
v -1.139248 0.269015 0.036475
v 1.946232 0.268841 0.047900
v -1.139069 0.288540 0.018986
v 1.946411 0.288366 0.030411
v -1.138865 0.303157 -0.001083
v 1.946615 0.302983 0.010342
v -1.138644 0.312302 -0.022961
v 1.946836 0.312128 -0.011537
v -1.138413 0.315626 -0.045809
v 1.947067 0.315452 -0.034384
v -1.138183 0.312999 -0.068746
v 1.947298 0.312825 -0.057321
v -1.137961 0.304524 -0.090893
v 1.947519 0.304350 -0.079468
v -1.137757 0.290525 -0.111398
v 1.947723 0.290351 -0.099973
v -1.137578 0.271541 -0.129472
v 1.947902 0.271367 -0.118048
v -1.137431 0.248301 -0.144423
v 1.948049 0.248127 -0.132998
v -1.137322 0.221699 -0.155674
v 1.948159 0.221525 -0.144249
v -1.137254 0.192756 -0.162793
v 1.948226 0.192582 -0.151368
v -1.137232 0.162585 -0.165508
v 1.948248 0.162411 -0.154083
v -1.137254 0.132346 -0.163713
v 1.948226 0.132172 -0.152288
v -1.137322 0.103200 -0.157478
v 1.948159 0.103026 -0.146053
v -1.137431 0.076267 -0.147042
v 1.948049 0.076093 -0.135617
v -1.137578 0.052583 -0.132806
v 1.947902 0.052409 -0.121381
v -1.137757 0.033058 -0.115317
v 1.947723 0.032884 -0.103892
v -1.137961 0.018441 -0.095248
v 1.947519 0.018267 -0.083823
v -1.138183 0.009296 -0.073370
v 1.947298 0.009122 -0.061945
vt 1.000000 0.500000
vt 1.000000 1.000000
vt 0.968750 1.000000
vt 0.968750 0.500000
vt 0.937500 1.000000
vt 0.937500 0.500000
vt 0.906250 1.000000
vt 0.906250 0.500000
vt 0.875000 1.000000
vt 0.875000 0.500000
vt 0.843750 1.000000
vt 0.843750 0.500000
vt 0.812500 1.000000
vt 0.812500 0.500000
vt 0.781250 1.000000
vt 0.781250 0.500000
vt 0.750000 1.000000
vt 0.750000 0.500000
vt 0.718750 1.000000
vt 0.718750 0.500000
vt 0.687500 1.000000
vt 0.687500 0.500000
vt 0.656250 1.000000
vt 0.656250 0.500000
vt 0.625000 1.000000
vt 0.625000 0.500000
vt 0.593750 1.000000
vt 0.593750 0.500000
vt 0.562500 1.000000
vt 0.562500 0.500000
vt 0.531250 1.000000
vt 0.531250 0.500000
vt 0.500000 1.000000
vt 0.500000 0.500000
vt 0.468750 1.000000
vt 0.468750 0.500000
vt 0.437500 1.000000
vt 0.437500 0.500000
vt 0.406250 1.000000
vt 0.406250 0.500000
vt 0.375000 1.000000
vt 0.375000 0.500000
vt 0.343750 1.000000
vt 0.343750 0.500000
vt 0.312500 1.000000
vt 0.312500 0.500000
vt 0.281250 1.000000
vt 0.281250 0.500000
vt 0.250000 1.000000
vt 0.250000 0.500000
vt 0.218750 1.000000
vt 0.218750 0.500000
vt 0.187500 1.000000
vt 0.187500 0.500000
vt 0.156250 1.000000
vt 0.156250 0.500000
vt 0.125000 1.000000
vt 0.125000 0.500000
vt 0.093750 1.000000
vt 0.093750 0.500000
vt 0.062500 1.000000
vt 0.062500 0.500000
vt 0.296822 0.485388
vt 0.250000 0.490000
vt 0.203178 0.485388
vt 0.158156 0.471731
vt 0.116663 0.449553
vt 0.080294 0.419706
vt 0.050447 0.383337
vt 0.028269 0.341844
vt 0.014612 0.296822
vt 0.010000 0.250000
vt 0.014612 0.203178
vt 0.028269 0.158156
vt 0.050447 0.116663
vt 0.080294 0.080294
vt 0.116663 0.050447
vt 0.158156 0.028269
vt 0.203178 0.014612
vt 0.250000 0.010000
vt 0.296822 0.014612
vt 0.341844 0.028269
vt 0.383337 0.050447
vt 0.419706 0.080294
vt 0.449553 0.116663
vt 0.471731 0.158156
vt 0.485388 0.203178
vt 0.490000 0.250000
vt 0.485388 0.296822
vt 0.471731 0.341844
vt 0.449553 0.383337
vt 0.419706 0.419706
vt 0.383337 0.449553
vt 0.341844 0.471731
vt 0.031250 1.000000
vt 0.031250 0.500000
vt 0.000000 1.000000
vt 0.000000 0.500000
vt 0.750000 0.490000
vt 0.796822 0.485388
vt 0.841844 0.471731
vt 0.883337 0.449553
vt 0.919706 0.419706
vt 0.949553 0.383337
vt 0.971731 0.341844
vt 0.985388 0.296822
vt 0.990000 0.250000
vt 0.985388 0.203178
vt 0.971731 0.158156
vt 0.949553 0.116663
vt 0.919706 0.080294
vt 0.883337 0.050447
vt 0.841844 0.028269
vt 0.796822 0.014612
vt 0.750000 0.010000
vt 0.703178 0.014612
vt 0.658156 0.028269
vt 0.616663 0.050447
vt 0.580294 0.080294
vt 0.550447 0.116663
vt 0.528269 0.158156
vt 0.514612 0.203178
vt 0.510000 0.250000
vt 0.514612 0.296822
vt 0.528269 0.341844
vt 0.550447 0.383337
vt 0.580294 0.419706
vt 0.616663 0.449553
vt 0.658156 0.471731
vt 0.703178 0.485388
vn -0.0005 -0.9935 0.1138
vn -0.0014 -0.9339 0.3574
vn -0.0021 -0.8259 0.5638
vn -0.0027 -0.6896 0.7242
vn -0.0031 -0.5410 0.8410
vn -0.0034 -0.3895 0.9210
vn -0.0036 -0.2389 0.9710
vn -0.0037 -0.0896 0.9960
vn -0.0037 0.0593 0.9982
vn -0.0036 0.2092 0.9779
vn -0.0034 0.3613 0.9324
vn -0.0031 0.5152 0.8571
vn -0.0027 0.6672 0.7449
vn -0.0021 0.8083 0.5887
vn -0.0014 0.9226 0.3857
vn -0.0005 0.9896 0.1439
vn 0.0005 0.9935 -0.1138
vn 0.0014 0.9339 -0.3574
vn 0.0021 0.8259 -0.5638
vn 0.0027 0.6896 -0.7242
vn 0.0031 0.5410 -0.8410
vn 0.0034 0.3895 -0.9210
vn 0.0036 0.2389 -0.9710
vn 0.0037 0.0896 -0.9960
vn 0.0037 -0.0593 -0.9982
vn 0.0036 -0.2092 -0.9779
vn 0.0034 -0.3613 -0.9324
vn 0.0031 -0.5152 -0.8571
vn 0.0027 -0.6672 -0.7449
vn 0.0021 -0.8083 -0.5887
vn 0.9999 -0.0002 0.0101
vn 0.0014 -0.9226 -0.3857
vn 0.0005 -0.9896 -0.1439
vn -0.9999 0.0002 -0.0101
usemtl None
s off
f 1/1/1 2/2/1 4/3/1 3/4/1
f 3/4/2 4/3/2 6/5/2 5/6/2
f 5/6/3 6/5/3 8/7/3 7/8/3
f 7/8/4 8/7/4 10/9/4 9/10/4
f 9/10/5 10/9/5 12/11/5 11/12/5
f 11/12/6 12/11/6 14/13/6 13/14/6
f 13/14/7 14/13/7 16/15/7 15/16/7
f 15/16/8 16/15/8 18/17/8 17/18/8
f 17/18/9 18/17/9 20/19/9 19/20/9
f 19/20/10 20/19/10 22/21/10 21/22/10
f 21/22/11 22/21/11 24/23/11 23/24/11
f 23/24/12 24/23/12 26/25/12 25/26/12
f 25/26/13 26/25/13 28/27/13 27/28/13
f 27/28/14 28/27/14 30/29/14 29/30/14
f 29/30/15 30/29/15 32/31/15 31/32/15
f 31/32/16 32/31/16 34/33/16 33/34/16
f 33/34/17 34/33/17 36/35/17 35/36/17
f 35/36/18 36/35/18 38/37/18 37/38/18
f 37/38/19 38/37/19 40/39/19 39/40/19
f 39/40/20 40/39/20 42/41/20 41/42/20
f 41/42/21 42/41/21 44/43/21 43/44/21
f 43/44/22 44/43/22 46/45/22 45/46/22
f 45/46/23 46/45/23 48/47/23 47/48/23
f 47/48/24 48/47/24 50/49/24 49/50/24
f 49/50/25 50/49/25 52/51/25 51/52/25
f 51/52/26 52/51/26 54/53/26 53/54/26
f 53/54/27 54/53/27 56/55/27 55/56/27
f 55/56/28 56/55/28 58/57/28 57/58/28
f 57/58/29 58/57/29 60/59/29 59/60/29
f 59/60/30 60/59/30 62/61/30 61/62/30
f 4/63/31 2/64/31 64/65/31 62/66/31 60/67/31 58/68/31 56/69/31 54/70/31 52/71/31 50/72/31 48/73/31 46/74/31 44/75/31 42/76/31 40/77/31 38/78/31 36/79/31 34/80/31 32/81/31 30/82/31 28/83/31 26/84/31 24/85/31 22/86/31 20/87/31 18/88/31 16/89/31 14/90/31 12/91/31 10/92/31 8/93/31 6/94/31
f 61/62/32 62/61/32 64/95/32 63/96/32
f 63/96/33 64/95/33 2/97/33 1/98/33
f 1/99/34 3/100/34 5/101/34 7/102/34 9/103/34 11/104/34 13/105/34 15/106/34 17/107/34 19/108/34 21/109/34 23/110/34 25/111/34 27/112/34 29/113/34 31/114/34 33/115/34 35/116/34 37/117/34 39/118/34 41/119/34 43/120/34 45/121/34 47/122/34 49/123/34 51/124/34 53/125/34 55/126/34 57/127/34 59/128/34 61/129/34 63/130/34
