# Blender v3.0.0 OBJ File: 'zauberstab.blend'
# www.blender.org
mtllib zauberstab.mtl
o Cube_Cube.001
v 1.002031 -0.418372 0.447749
v 0.408931 -0.128147 0.121660
v 0.653406 -0.110433 0.306681
v 0.856664 -0.496672 0.333458
v 0.873996 -0.315449 0.461673
v 0.622706 -0.219411 0.511783
v 0.614332 -0.339045 0.224887
v 0.098600 -0.002743 -0.046946
v -0.381221 0.265269 -0.227072
v -0.442477 0.409660 0.045174
v -0.580408 0.607489 -0.247639
v 0.060118 0.227600 0.044554
v 0.449154 0.000182 0.246132
v -0.715500 0.444430 -0.200524
v -0.413485 0.166200 -0.077249
v -0.193789 0.037503 0.028774
v 0.084776 -0.113020 0.122964
v 0.282776 -0.147427 0.077945
v -0.114855 0.146770 -0.172525
v -0.101347 0.028838 -0.011210
v -0.451057 0.243291 -0.176589
v -0.050363 0.306580 0.039631
v 0.116375 0.180772 0.102475
v -0.667569 0.569674 -0.190157
v -0.222457 0.322787 0.061127
v -0.184034 0.247910 0.157731
v 0.060851 0.169005 0.190279
v -0.601272 0.395029 -0.322561
v -0.648018 0.376312 -0.259804
v -0.327394 0.460023 -0.084967
v 0.258196 -0.059061 0.038994
v 0.077142 0.086612 0.239061
v 0.274778 -0.178984 0.264536
v 0.252483 0.043129 0.269481
v 0.508673 -0.308458 0.352296
v 0.308995 -0.054074 0.389516
v 0.372891 -0.254622 0.208865
v -0.419837 0.428650 -0.212289
v -0.554842 0.451902 -0.309704
v -0.543939 0.288621 -0.123460
v -0.262101 0.339462 0.101099
v -0.204289 0.390735 -0.045694
v -0.293094 0.151520 -0.154274
v -0.923713 0.639665 -0.351099
v -0.885614 0.639578 -0.340393
v 0.674606 -0.377212 0.451775
v -0.628370 0.535478 -0.312229
v 0.200370 0.107760 0.093514
v 0.438577 -0.031786 0.149626
v -0.197500 0.178128 0.122597
v -0.689481 0.544957 -0.137361
v -0.086689 0.198411 -0.132340
v 1.552882 -0.689549 0.901208
v 1.499156 -0.790175 0.910286
v 1.511443 -0.861310 0.855033
v 1.571102 -0.851637 0.727018
v 1.605789 -0.710339 0.787513
v 1.593595 -0.683458 0.839882
v 0.989489 -0.574875 0.564900
v 1.355803 -0.799248 0.785202
v 1.080248 -0.611553 0.455335
v 0.804386 -0.494722 0.452374
v 1.417390 -0.782508 0.642798
v 1.481786 -0.626132 0.797076
v 1.345668 -0.570362 0.751065
v 1.115297 -0.445291 0.589170
v 1.409286 -0.664466 0.823493
v 1.244177 -0.549021 0.753645
v 0.907883 -0.393885 0.548396
v 0.955466 -0.526819 0.617888
v 1.301537 -0.710227 0.810819
v 1.371696 -0.581920 0.650604
v 1.057838 -0.411114 0.508479
v 1.179510 -0.537634 0.502426
v 1.351045 -0.597907 0.502094
v 1.449697 -0.696017 0.633142
v 1.221697 -0.636719 0.501705
v 1.003473 -0.544165 0.370178
vt 0.838949 0.665548
vt 0.875000 0.719808
vt 0.834193 0.750000
vt 0.662737 0.744210
vt 0.625000 0.750000
vt 0.625000 0.640288
vt 0.662737 0.539400
vt 0.539814 0.500000
vt 0.838673 0.500264
vt 0.291246 0.582215
vt 0.312394 0.665548
vt 0.269658 0.730536
vt 0.376881 0.089764
vt 0.625000 0.286310
vt 0.434061 0.286155
vt 0.625000 0.369551
vt 0.507287 0.396902
vt 0.507287 0.352604
vt 0.625000 0.434811
vt 0.507287 0.427179
vt 0.299254 0.750000
vt 0.739489 0.665548
vt 0.767545 0.750000
vt 0.733328 0.750000
vt 0.755449 0.500000
vt 0.743960 0.582215
vt 0.694900 0.530346
vt 0.766049 0.582215
vt 0.472804 0.309698
vt 0.186608 0.500000
vt 0.167312 0.582215
vt 0.169555 0.500000
vt 0.712783 0.665548
vt 0.696415 0.750000
vt 0.284745 0.500000
vt 0.266802 0.500000
vt 0.339895 0.582215
vt 0.302902 0.500000
vt 0.628647 0.462613
vt 0.804972 0.504260
vt 0.785663 0.665548
vt 0.804191 0.750000
vt 0.194528 0.665548
vt 0.183474 0.750000
vt 0.166047 0.665548
vt 0.160670 0.500000
vt 0.160670 0.750000
vt 0.625000 0.892545
vt 0.625418 0.911416
vt 0.507287 0.893552
vt 0.213584 0.618002
vt 0.200529 0.750000
vt 0.623941 0.319984
vt 0.625000 0.338584
vt 0.195150 0.534597
vt 0.786416 0.571549
vt 0.625195 0.929191
vt 0.375000 0.941525
vt 0.375000 0.924471
vt 0.375000 0.409745
vt 0.375000 0.391802
vt 0.603227 0.960127
vt 0.375000 0.964330
vt 0.375000 0.825746
vt 0.618705 0.858191
vt 0.375000 0.858198
vt 0.623517 0.821434
vt 0.375000 0.794960
vt 0.375000 0.582215
vt 0.375000 0.559402
vt 0.375000 0.746114
vt 0.625000 0.750000
vt 0.625000 0.711163
vt 0.625000 0.602723
vt 0.507287 0.768890
vt 0.375000 0.744956
vt 0.560064 0.999980
vt 0.375000 1.000000
vt 0.620039 0.583067
vt 0.507287 0.750000
vt 0.625000 0.500000
vt 0.613934 0.500000
vt 0.507287 0.500000
vt 0.375000 0.750000
vt 0.375000 0.750000
vt 0.375000 0.593872
vt 0.375000 0.500000
vt 0.375000 0.582215
vt 0.375000 0.500000
vt 0.625000 0.500000
vt 0.507287 0.500000
vt 0.507287 0.500000
vt 0.507287 0.750000
vt 0.625000 0.750000
vt 0.507287 0.750000
vt 0.625000 0.616453
vt 0.625000 0.626190
vt 0.625000 0.787737
vt 0.331114 0.737446
vt 0.237446 0.730481
vt 0.239407 0.624168
vt 0.125000 0.660260
vt 0.230269 0.501908
vt 0.558918 0.016551
vt 0.786416 0.750000
vt 0.375000 0.355242
vt 0.375000 0.321047
vt 0.375000 0.887554
vt 0.375000 0.427902
vt 0.375000 0.294555
vn -0.0151 0.9079 0.4188
vn 0.3930 0.7531 0.5276
vn 0.6299 0.7675 0.1187
vn -0.0628 0.8748 0.4803
vn -0.2574 -0.8269 -0.4999
vn 0.2980 0.5197 -0.8007
vn 0.6293 0.4901 -0.6031
vn 0.5339 0.7835 -0.3180
vn -0.4881 -0.8305 0.2681
vn 0.0528 0.5165 0.8547
vn 0.2874 0.8619 0.4177
vn 0.4542 0.7989 0.3943
vn 0.5407 0.3328 -0.7726
vn 0.5363 -0.2560 -0.8043
vn 0.0930 0.7947 0.5998
vn 0.3747 -0.2847 -0.8824
vn 0.2411 0.8362 0.4927
vn -0.2559 -0.8268 -0.5009
vn 0.3417 -0.1233 -0.9317
vn 0.5227 0.7905 -0.3191
vn 0.0303 0.7393 0.6727
vn 0.3330 0.8968 0.2913
vn -0.5053 -0.8481 -0.1597
vn 0.1486 0.1010 -0.9837
vn -0.6848 -0.7266 0.0554
vn 0.0637 0.7867 0.6141
vn -0.7171 -0.1981 0.6683
vn -0.3945 -0.7922 -0.4656
vn 0.5283 0.5956 -0.6051
vn -0.2889 -0.6647 -0.6890
vn 0.5695 0.7806 -0.2575
vn 0.1460 0.8233 0.5485
vn -0.6212 -0.4098 0.6679
vn 0.5408 0.4247 -0.7260
vn -0.6065 -0.3045 0.7345
vn -0.6324 -0.4074 0.6589
vn -0.5368 -0.5187 0.6654
vn -0.2891 -0.9282 -0.2342
vn -0.1905 0.7753 0.6022
vn -0.5741 -0.6314 0.5213
vn 0.2454 -0.4143 -0.8764
vn 0.7884 -0.3771 0.4860
vn 0.3364 0.8887 0.3116
vn 0.6254 0.5170 -0.5844
vn -0.2829 -0.9375 -0.2027
vn -0.4749 -0.8742 -0.1007
vn -0.1350 -0.8326 -0.5372
vn 0.1657 -0.5619 -0.8104
vn 0.5676 0.5741 -0.5902
vn 0.8005 0.5738 -0.1731
vn -0.3837 0.3162 0.8676
vn -0.2194 0.2558 0.9415
vn 0.0570 0.7514 0.6574
vn 0.1978 0.8916 0.4073
vn -0.3250 -0.9127 -0.2478
vn 0.4932 0.6859 -0.5351
vn 0.7034 0.1268 -0.6994
vn -0.3710 -0.4342 0.8209
vn -0.3271 -0.9439 -0.0446
vn 0.3952 0.7854 0.4765
vn -0.4750 -0.8590 -0.1911
vn 0.5407 0.8183 -0.1949
vn -0.5303 -0.5473 0.6475
vn -0.2683 -0.8240 -0.4991
vn 0.4006 0.8400 0.3659
vn 0.1492 0.7825 0.6045
vn 0.2700 0.7910 0.5491
vn -0.5135 -0.6388 -0.5730
vn -0.0813 -0.8078 -0.5838
vn -0.2265 -0.7906 -0.5689
vn 0.1825 -0.3138 -0.9318
vn -0.3043 -0.8738 -0.3792
vn 0.3527 -0.2935 -0.8885
vn -0.2641 0.2095 0.9415
vn 0.5639 0.6003 -0.5671
vn 0.5997 0.4248 -0.6782
vn -0.7328 -0.6782 -0.0549
vn -0.5674 -0.7405 -0.3601
vn 0.2678 0.8212 0.5039
vn -0.0242 0.5058 0.8623
vn 0.1877 0.8111 0.5540
vn 0.3686 0.9293 -0.0222
vn -0.4592 -0.3272 0.8259
vn 0.5760 0.8117 0.0969
vn 0.1351 0.8747 0.4655
vn -0.5196 -0.4476 0.7278
vn 0.2086 0.8058 0.5543
vn -0.2613 -0.7909 -0.5533
vn -0.5292 -0.8268 0.1907
vn 0.6547 0.4709 -0.5913
vn 0.4836 0.1916 -0.8541
vn 0.3652 0.4721 -0.8023
vn 0.6185 0.7209 0.3127
vn -0.0978 -0.5891 -0.8021
vn -0.6357 -0.3128 0.7057
vn -0.4862 -0.4705 0.7363
vn 0.6006 0.0469 -0.7981
vn -0.5854 -0.5471 0.5984
vn -0.6606 -0.4328 0.6134
vn 0.5666 0.4782 -0.6711
vn -0.6728 -0.3466 0.6536
vn 0.4626 0.3099 -0.8306
vn -0.4190 -0.4472 0.7902
vn 0.6386 0.2847 -0.7149
vn -0.3420 0.3559 0.8697
vn 0.7583 0.2343 -0.6083
vn -0.7054 -0.2371 0.6680
vn 0.5785 0.3598 -0.7320
vn 0.8285 -0.3451 0.4410
vn 0.8430 -0.3729 0.3877
vn 0.4865 0.7774 -0.3987
vn -0.3898 -0.9208 -0.0147
vn 0.0859 -0.7422 -0.6647
vn 0.2382 -0.4912 -0.8379
vn 0.0660 0.6362 0.7687
vn -0.3395 0.3374 0.8780
vn -0.4082 0.1727 0.8964
vn 0.1290 0.8813 0.4547
vn -0.5860 -0.7058 0.3981
vn -0.3839 -0.9105 -0.1539
vn -0.6238 -0.6504 0.4335
vn 0.4645 0.8851 0.0299
vn 0.4492 0.8915 0.0577
vn 0.5498 0.3678 -0.7500
vn 0.3813 0.9244 -0.0076
vn 0.3711 -0.4147 -0.8309
vn 0.0007 0.0076 -1.0000
usemtl Material.001
s off
f 24/1/1 44/2/1 51/3/1
f 6/4/2 69/5/2 5/6/2
f 3/7/3 5/6/3 1/8/3
f 11/9/4 44/2/4 24/1/4
f 18/10/5 37/11/5 17/12/5
f 45/13/6 11/14/6 47/15/6
f 12/16/7 48/17/7 52/18/7
f 13/19/8 49/20/8 48/17/8
f 37/11/9 33/21/9 17/12/9
f 27/22/10 26/23/10 32/24/10
f 12/25/11 23/26/11 13/27/11
f 22/28/12 27/22/12 23/26/12
f 11/14/13 38/29/13 47/15/13
f 38/30/14 28/31/14 39/32/14
f 34/33/15 32/24/15 36/34/15
f 31/35/16 18/10/16 8/36/16
f 23/26/17 34/33/17 13/27/17
f 7/37/18 37/11/18 18/10/18
f 2/38/19 7/37/19 18/10/19
f 49/20/20 13/19/20 3/39/20
f 30/40/21 24/1/21 25/41/21
f 24/1/22 10/42/22 25/41/22
f 21/43/23 40/44/23 29/45/23
f 39/32/24 28/31/24 47/46/24
f 29/45/25 40/44/25 14/47/25
f 11/9/26 24/1/26 30/40/26
f 26/48/27 41/49/27 50/50/27
f 43/51/28 15/52/28 21/43/28
f 30/53/29 42/54/29 52/18/29
f 43/51/30 21/43/30 9/55/30
f 42/56/31 22/28/31 12/25/31
f 42/56/32 25/41/32 22/28/32
f 10/57/33 40/58/33 15/59/33
f 48/17/34 31/60/34 8/61/34
f 51/62/35 14/63/35 40/58/35
f 33/64/36 32/65/36 17/66/36
f 36/67/37 33/64/37 35/68/37
f 63/69/38 56/70/38 60/71/38
f 67/72/39 53/73/39 64/74/39
f 46/75/40 35/68/40 62/76/40
f 14/63/41 44/77/41 45/78/41
f 58/79/42 53/73/42 54/80/42
f 64/74/43 53/73/43 58/79/43
f 72/81/44 57/82/44 76/83/44
f 60/71/45 56/70/45 55/84/45
f 59/85/46 61/86/46 60/71/46
f 78/87/47 61/86/47 4/88/47
f 77/89/48 63/69/48 61/86/48
f 1/8/49 73/90/49 74/91/49
f 72/81/50 76/83/50 75/92/50
f 69/5/51 70/93/51 68/94/51
f 68/94/52 71/95/52 67/72/52
f 69/5/53 66/96/53 5/6/53
f 66/96/54 68/94/54 65/97/54
f 63/69/55 60/71/55 61/86/55
f 5/6/56 73/90/56 1/8/56
f 56/70/57 76/83/57 57/82/57
f 69/5/58 6/98/58 46/75/58
f 7/37/59 35/99/59 37/11/59
f 3/7/60 6/4/60 5/6/60
f 35/99/61 7/37/61 4/88/61 62/76/61
f 57/82/62 72/81/62 64/74/62 58/79/62
f 54/80/63 71/95/63 60/71/63 55/84/63
f 17/12/64 16/100/64 20/101/64 18/10/64
f 23/26/65 27/22/65 34/33/65
f 22/28/66 25/41/66 27/22/66
f 42/56/67 30/40/67 25/41/67
f 28/31/68 29/45/68 45/102/68
f 19/103/69 20/101/69 43/51/69
f 20/101/70 19/103/70 8/36/70 18/10/70
f 45/102/24 47/46/24 28/31/24
f 4/88/71 7/37/71 2/38/71 78/87/71
f 15/52/72 43/51/72 20/101/72 16/100/72
f 31/35/73 2/38/73 18/10/73
f 45/13/74 44/104/74 11/14/74
f 52/18/75 42/54/75 12/16/75
f 12/16/76 13/19/76 48/17/76
f 29/45/77 14/47/77 45/102/77
f 21/43/78 15/52/78 40/44/78
f 34/33/79 6/4/79 3/7/79 13/27/79
f 34/33/80 27/22/80 32/24/80
f 27/22/81 25/41/81 26/23/81
f 25/41/82 10/42/82 41/105/82
f 32/65/83 26/48/83 50/50/83
f 12/25/84 22/28/84 23/26/84
f 24/1/85 51/3/85 10/42/85
f 46/75/86 6/98/86 36/67/86
f 34/33/87 36/34/87 6/4/87
f 21/43/88 29/45/88 28/31/88 9/55/88
f 37/11/89 35/99/89 33/21/89
f 11/14/90 30/53/90 38/29/90
f 38/30/91 9/55/91 28/31/91
f 52/18/92 19/106/92 9/107/92 30/53/92
f 25/41/93 41/105/93 26/23/93
f 9/55/94 19/103/94 43/51/94
f 41/49/95 15/59/95 16/108/95 50/50/95
f 16/108/96 17/66/96 32/65/96 50/50/96
f 2/109/97 49/20/97 3/39/97
f 35/68/98 46/75/98 36/67/98
f 33/64/99 36/67/99 32/65/99
f 39/110/100 47/15/100 38/29/100
f 10/57/101 51/62/101 40/58/101
f 2/109/102 31/60/102 48/17/102 49/20/102
f 41/49/103 10/57/103 15/59/103
f 8/61/104 19/106/104 52/18/104 48/17/104
f 54/80/105 53/73/105 67/72/105 71/95/105
f 38/29/106 30/53/106 9/107/106
f 14/63/107 51/62/107 44/77/107
f 1/8/108 78/87/108 2/109/108 3/39/108
f 55/84/109 56/70/109 58/79/109 54/80/109
f 56/70/110 57/82/110 58/79/110
f 72/81/111 75/92/111 74/91/111 73/90/111
f 59/85/112 62/76/112 61/86/112
f 78/87/113 77/89/113 61/86/113
f 77/89/114 56/70/114 63/69/114
f 64/74/115 65/97/115 68/94/115 67/72/115
f 46/75/116 70/93/116 69/5/116
f 68/94/117 70/93/117 71/95/117
f 69/5/118 68/94/118 66/96/118
f 70/93/119 46/75/119 62/76/119 59/85/119
f 62/76/120 4/88/120 61/86/120
f 71/95/121 70/93/121 59/85/121 60/71/121
f 72/81/122 73/90/122 66/96/122 65/97/122
f 5/6/123 66/96/123 73/90/123
f 77/89/124 78/87/124 1/8/124 74/91/124
f 65/97/125 64/74/125 72/81/125
f 76/83/126 56/70/126 77/89/126 75/92/126
f 77/89/127 74/91/127 75/92/127
