# Blender v3.0.0 OBJ File: 'bookOpen.blend'
# www.blender.org
mtllib bookOpenRightSide.mtl
o Bezier-Kurve_Mesh
v 0.036175 0.206200 1.170209
v 0.098266 0.332527 1.171043
v 0.184030 0.415005 1.171587
v 0.292069 0.459898 1.171883
v 0.420985 0.473471 1.171972
v 0.569380 0.461986 1.171896
v 0.735858 0.431710 1.171697
v 0.919020 0.388905 1.171414
v 1.117469 0.339835 1.171091
v 1.329807 0.290766 1.170767
v 1.554635 0.247961 1.170485
v 1.790558 0.217684 1.170285
v 2.036175 0.206200 1.170209
v 0.036175 0.206200 -1.227402
v 0.098266 0.332527 -1.226568
v 0.184030 0.415005 -1.226025
v 0.292069 0.459898 -1.225729
v 0.420985 0.473471 -1.225639
v 0.569380 0.461986 -1.225715
v 0.735858 0.431710 -1.225914
v 0.919020 0.388905 -1.226197
v 1.117469 0.339835 -1.226520
v 1.329807 0.290766 -1.226844
v 1.554635 0.247961 -1.227126
v 1.790558 0.217684 -1.227326
v 2.036175 0.206200 -1.227402
v -0.001565 0.092976 1.170209
v 0.065510 0.092976 1.171043
v 0.158158 0.092976 1.171587
v 0.274869 0.092976 1.171883
v 0.414134 0.092976 1.171972
v 0.574442 0.092976 1.171896
v 0.754284 0.092976 1.171697
v 0.952149 0.092976 1.171414
v 1.166528 0.092976 1.171091
v 1.395911 0.092976 1.170767
v 1.638788 0.092976 1.170485
v 1.893649 0.092976 1.170285
v 2.158983 0.092976 1.170209
v -0.001565 0.092976 -1.227402
v 0.065510 0.092976 -1.226568
v 0.158158 0.092976 -1.226025
v 0.274869 0.092976 -1.225729
v 0.414134 0.092976 -1.225639
v 0.574442 0.092976 -1.225715
v 0.754284 0.092976 -1.225914
v 0.952149 0.092976 -1.226197
v 1.166528 0.092976 -1.226520
v 1.395911 0.092976 -1.226844
v 1.638788 0.092976 -1.227126
v 1.893649 0.092976 -1.227326
v 2.158983 0.092976 -1.227402
v -0.003655 0.089868 1.245036
v -0.003655 0.066085 1.245036
v -0.003655 0.089868 -1.296390
v -0.003655 0.058816 -1.296390
v 2.240153 0.089868 1.245036
v 2.240153 0.003510 1.245036
v 2.240153 0.089868 -1.296390
v 2.240153 0.003510 -1.296390
v 0.066890 0.089868 -1.296390
v 0.066890 0.003510 -1.296390
v 0.066890 0.089868 1.245036
v 0.066890 0.003510 1.245036
vt 0.375000 0.000000
vt 0.375000 0.250000
vt 0.625000 0.250000
vt 0.625000 0.000000
vt 0.375000 0.257860
vt 0.375000 0.500000
vt 0.625000 0.500000
vt 0.625000 0.257860
vt 0.375000 0.750000
vt 0.625000 0.750000
vt 0.375000 0.992140
vt 0.375000 1.000000
vt 0.625000 1.000000
vt 0.625000 0.992140
vt 0.132860 0.500000
vt 0.132860 0.750000
vt 0.867140 0.500000
vt 0.867140 0.750000
vt 0.875000 0.750000
vt 0.875000 0.500000
vt 0.125000 0.500000
vt 0.125000 0.750000
vt 0.000000 0.000000
vt 0.000000 0.000000
vt 0.000000 0.000000
vt 0.000000 0.000000
vt 0.000000 0.000000
vt 0.000000 0.000000
vt 0.000000 0.000000
vt 0.000000 0.000000
vt 0.000000 0.000000
vt 0.000000 0.000000
vt 0.000000 0.000000
vt 0.000000 0.000000
vt 0.000000 0.000000
vt 0.000000 0.000000
vt 0.000000 0.000000
vt 0.000000 0.000000
vt 0.000000 0.000000
vt 0.000000 0.000000
vt 0.000000 0.000000
vt 0.000000 0.000000
vt 0.000000 0.000000
vt 0.000000 0.000000
vt 0.000000 0.000000
vt 0.000000 0.000000
vt 0.000000 0.000000
vt 0.000000 0.000000
vt 0.000000 0.000000
vt 0.000000 1.000000
vt 1.000000 1.000000
vt 1.000000 0.000000
vt 0.000000 0.000000
vt 0.000000 1.000000
vt 1.000000 1.000000
vt 1.000000 0.000000
vt 0.000000 0.000000
vt 0.000000 1.000000
vt 1.000000 1.000000
vt 1.000000 0.000000
vt 0.000000 0.000000
vt 0.000000 1.000000
vt 1.000000 1.000000
vt 1.000000 0.000000
vt 0.000000 0.000000
vt 0.000000 1.000000
vt 1.000000 1.000000
vt 1.000000 0.000000
vt 0.000000 0.000000
vt 0.000000 1.000000
vt 1.000000 1.000000
vt 1.000000 0.000000
vt 0.000000 0.000000
vt 0.000000 1.000000
vt 1.000000 1.000000
vt 1.000000 0.000000
vt 0.000000 0.000000
vt 0.000000 1.000000
vt 1.000000 1.000000
vt 1.000000 0.000000
vt 0.000000 0.000000
vt 0.000000 1.000000
vt 1.000000 1.000000
vt 1.000000 0.000000
vt 0.000000 0.000000
vt 0.000000 1.000000
vt 1.000000 1.000000
vt 1.000000 0.000000
vt 0.000000 0.000000
vt 0.000000 1.000000
vt 1.000000 1.000000
vt 1.000000 0.000000
vt 0.000000 0.000000
vt 0.000000 1.000000
vt 1.000000 1.000000
vt 1.000000 0.000000
vt 0.000000 0.000000
vt 0.000000 0.000000
vt 0.000000 0.000000
vt 0.000000 0.000000
vt 0.000000 0.000000
vt 0.000000 0.000000
vt 0.000000 0.000000
vt 0.000000 0.000000
vt 0.000000 0.000000
vt 0.000000 0.000000
vt 0.000000 0.000000
vt 0.000000 0.000000
vt 0.000000 0.000000
vt 0.000000 0.000000
vn -1.0000 0.0000 0.0000
vn 0.0000 0.0000 -1.0000
vn 1.0000 0.0000 0.0000
vn 0.0000 0.0000 1.0000
vn 0.0000 1.0000 0.0000
vn -0.6412 -0.7674 0.0011
vn 0.0000 -1.0000 0.0000
vn 0.2276 0.9738 0.0000
vn -0.1047 0.9945 0.0000
vn 0.1273 0.9919 0.0000
vn -0.8975 0.4411 0.0000
vn 0.2400 0.9708 0.0000
vn 0.0772 0.9970 0.0000
vn 0.0467 0.9989 0.0000
vn -0.6932 0.7208 0.0000
vn 0.2252 0.9743 0.0000
vn 0.1789 0.9839 0.0000
vn -0.3837 0.9234 0.0000
vn 0.1870 0.9824 0.0000
vn 0.0027 -0.0002 -1.0000
vn 0.0016 0.0002 1.0000
vn -0.0008 -0.0006 -1.0000
vn -0.0160 0.0032 0.9999
vn 0.0007 -0.0000 -1.0000
vn 0.0015 0.0004 1.0000
vn -0.0003 -0.0003 -1.0000
vn -0.0064 0.0007 1.0000
vn -0.0005 0.0000 -1.0000
vn -0.9487 0.3162 0.0000
vn 0.0013 0.0005 1.0000
vn -0.0027 0.0002 1.0000
vn -0.0012 -0.0000 -1.0000
vn 0.0008 0.0006 1.0000
vn -0.0007 0.0000 1.0000
vn -0.0015 -0.0001 -1.0000
vn 0.0003 0.0003 1.0000
vn 0.0005 -0.0000 1.0000
vn -0.0016 -0.0002 -1.0000
vn 0.6778 0.7352 0.0000
vn 0.0160 -0.0032 -0.9999
vn 0.0012 0.0000 1.0000
vn -0.0015 -0.0004 -1.0000
vn 0.0064 -0.0007 -1.0000
vn 0.0015 0.0001 1.0000
vn -0.0013 -0.0005 -1.0000
usemtl book.cover
s off
f 53/1/1 55/2/1 56/3/1 54/4/1
f 61/5/2 59/6/2 60/7/2 62/8/2
f 59/6/3 57/9/3 58/10/3 60/7/3
f 63/11/4 53/12/4 54/13/4 64/14/4
f 61/15/5 63/16/5 57/9/5 59/6/5
f 62/17/6 64/18/6 54/19/6 56/20/6
f 60/7/7 58/10/7 64/18/7 62/17/7
f 55/21/5 53/22/5 63/16/5 61/15/5
f 57/9/4 63/11/4 64/14/4 58/10/4
f 55/2/2 61/5/2 62/8/2 56/3/2
usemtl book
f 7/23/8 8/24/8 21/25/8 20/26/8
f 4/27/9 5/28/9 18/29/9 17/30/9
f 11/31/10 12/32/10 25/33/10 24/34/10
f 1/35/11 2/36/11 15/37/11 14/38/11
f 8/24/12 9/39/12 22/40/12 21/25/12
f 5/28/13 6/41/13 19/42/13 18/29/13
f 12/32/14 13/43/14 26/44/14 25/33/14
f 2/36/15 3/45/15 16/46/15 15/37/15
f 9/39/16 10/47/16 23/48/16 22/40/16
f 6/41/17 7/23/17 20/26/17 19/42/17
f 3/45/18 4/27/18 17/30/18 16/46/18
f 10/47/19 11/31/19 24/34/19 23/48/19
f 33/49/7 46/50/7 47/51/7 34/52/7
f 30/53/7 43/54/7 44/55/7 31/56/7
f 37/57/7 50/58/7 51/59/7 38/60/7
f 27/61/7 40/62/7 41/63/7 28/64/7
f 34/65/7 47/66/7 48/67/7 35/68/7
f 31/69/7 44/70/7 45/71/7 32/72/7
f 38/73/7 51/74/7 52/75/7 39/76/7
f 28/77/7 41/78/7 42/79/7 29/80/7
f 35/81/7 48/82/7 49/83/7 36/84/7
f 32/85/7 45/86/7 46/87/7 33/88/7
f 29/89/7 42/90/7 43/91/7 30/92/7
f 36/93/7 49/94/7 50/95/7 37/96/7
f 17/30/20 43/97/20 42/98/20 16/46/20
f 8/24/21 34/65/21 35/81/21 9/39/21
f 25/33/22 51/99/22 50/100/22 24/34/22
f 1/35/23 27/61/23 28/77/23 2/36/23
f 18/29/24 44/101/24 43/97/24 17/30/24
f 9/39/25 35/81/25 36/93/25 10/47/25
f 26/44/26 52/102/26 51/99/26 25/33/26
f 2/36/27 28/77/27 29/89/27 3/45/27
f 19/42/28 45/103/28 44/101/28 18/29/28
f 14/38/29 40/104/29 27/61/29 1/35/29
f 10/47/30 36/93/30 37/57/30 11/31/30
f 3/45/31 29/89/31 30/53/31 4/27/31
f 20/26/32 46/105/32 45/103/32 19/42/32
f 11/31/33 37/57/33 38/73/33 12/32/33
f 4/27/34 30/53/34 31/69/34 5/28/34
f 21/25/35 47/106/35 46/105/35 20/26/35
f 12/32/36 38/73/36 39/107/36 13/43/36
f 5/28/37 31/69/37 32/85/37 6/41/37
f 22/40/38 48/108/38 47/106/38 21/25/38
f 13/43/39 39/107/39 52/102/39 26/44/39
f 15/37/40 41/109/40 40/104/40 14/38/40
f 6/41/41 32/85/41 33/49/41 7/23/41
f 23/48/42 49/110/42 48/108/42 22/40/42
f 16/46/43 42/98/43 41/109/43 15/37/43
f 7/23/44 33/49/44 34/65/44 8/24/44
f 24/34/45 50/100/45 49/110/45 23/48/45
